<svg xmlns="http://www.w3.org/2000/svg" viewBox="0 0 500 500"><g id="freepik--background-complete--inject-104"><rect x="416.78" y="398.49" width="33.12" height="0.25" style="fill:#ebebeb"></rect><rect x="322.53" y="401.21" width="8.69" height="0.25" style="fill:#ebebeb"></rect><rect x="396.59" y="389.21" width="19.19" height="0.25" style="fill:#ebebeb"></rect><rect x="52.46" y="390.89" width="43.19" height="0.25" style="fill:#ebebeb"></rect><rect x="104.56" y="390.89" width="6.33" height="0.25" style="fill:#ebebeb"></rect><rect x="131.47" y="395.11" width="93.68" height="0.25" style="fill:#ebebeb"></rect><path d="M238.4,337.8H45.3a5.71,5.71,0,0,1-5.71-5.71V60.66A5.71,5.71,0,0,1,45.3,55H238.4a5.71,5.71,0,0,1,5.71,5.71V332.09A5.71,5.71,0,0,1,238.4,337.8ZM45.3,55.2a5.47,5.47,0,0,0-5.46,5.46V332.09a5.47,5.47,0,0,0,5.46,5.46H238.4a5.47,5.47,0,0,0,5.46-5.46V60.66a5.47,5.47,0,0,0-5.46-5.46Z" style="fill:#ebebeb"></path><path d="M454.7,337.8H261.6a5.71,5.71,0,0,1-5.71-5.71V60.66A5.71,5.71,0,0,1,261.6,55H454.7a5.71,5.71,0,0,1,5.71,5.71V332.09A5.71,5.71,0,0,1,454.7,337.8ZM261.6,55.2a5.47,5.47,0,0,0-5.46,5.46V332.09a5.47,5.47,0,0,0,5.46,5.46H454.7a5.47,5.47,0,0,0,5.46-5.46V60.66a5.47,5.47,0,0,0-5.46-5.46Z" style="fill:#ebebeb"></path><rect y="382.4" width="500" height="0.25" style="fill:#ebebeb"></rect><path d="M328.28,134.71H312.87a5.25,5.25,0,0,1-5.25-5.25h0a5.24,5.24,0,0,1,5.25-5.24h15.41a5.23,5.23,0,0,1,5.24,5.24h0A5.24,5.24,0,0,1,328.28,134.71Z" style="fill:#f0f0f0"></path><path d="M357.6,134.71H342.19a5.24,5.24,0,0,1-5.24-5.25h0a5.23,5.23,0,0,1,5.24-5.24H357.6a5.24,5.24,0,0,1,5.25,5.24h0A5.25,5.25,0,0,1,357.6,134.71Z" style="fill:#f5f5f5"></path><path d="M344.65,147.1H329.24a5.25,5.25,0,0,1-5.25-5.25h0a5.25,5.25,0,0,1,5.25-5.24h15.41a5.25,5.25,0,0,1,5.25,5.24h0A5.25,5.25,0,0,1,344.65,147.1Z" style="fill:#f5f5f5"></path><path d="M339.59,122.32H324.18a5.25,5.25,0,0,1-5.25-5.25h0a5.25,5.25,0,0,1,5.25-5.24h15.41a5.25,5.25,0,0,1,5.25,5.24h0A5.25,5.25,0,0,1,339.59,122.32Z" style="fill:#f5f5f5"></path><rect x="385.26" y="258.55" width="31.84" height="12.89" rx="5.76" transform="translate(802.36 529.99) rotate(180)" style="fill:#f5f5f5"></rect><rect x="349.21" y="258.55" width="31.84" height="12.89" rx="5.76" transform="translate(730.27 529.99) rotate(180)" style="fill:#f5f5f5"></rect><rect x="365.13" y="243.32" width="31.84" height="12.89" rx="5.76" transform="translate(762.11 499.53) rotate(-180)" style="fill:#f0f0f0"></rect><rect x="371.36" y="273.77" width="31.84" height="12.89" rx="5.76" transform="translate(774.55 560.44) rotate(180)" style="fill:#ebebeb"></rect><rect x="106.89" y="248.05" width="35.42" height="14.34" rx="5.76" transform="translate(249.2 510.45) rotate(180)" style="fill:#f5f5f5"></rect><rect x="66.79" y="248.05" width="35.42" height="14.34" rx="5.76" transform="translate(169 510.45) rotate(180)" style="fill:#ebebeb"></rect><rect x="84.5" y="231.11" width="35.42" height="14.34" rx="5.76" transform="translate(204.42 476.57) rotate(180)" style="fill:#f5f5f5"></rect><rect x="91.42" y="264.99" width="35.42" height="14.34" rx="5.76" transform="translate(218.26 544.33) rotate(-180)" style="fill:#f5f5f5"></rect><path d="M124.56,179h16.76a5.7,5.7,0,0,1,5.7,5.7h0a5.7,5.7,0,0,1-5.7,5.7H124.56a5.7,5.7,0,0,1-5.7-5.7h0A5.7,5.7,0,0,1,124.56,179Z" style="fill:#f0f0f0"></path><path d="M92.67,179h16.76a5.71,5.71,0,0,1,5.71,5.7h0a5.71,5.71,0,0,1-5.71,5.7H92.67a5.7,5.7,0,0,1-5.7-5.7h0A5.7,5.7,0,0,1,92.67,179Z" style="fill:#f5f5f5"></path><path d="M106.76,165.49h16.76a5.7,5.7,0,0,1,5.7,5.7h0a5.7,5.7,0,0,1-5.7,5.7H106.76a5.71,5.71,0,0,1-5.71-5.7h0A5.71,5.71,0,0,1,106.76,165.49Z" style="fill:#f0f0f0"></path><path d="M112.26,192.43H129a5.7,5.7,0,0,1,5.7,5.7h0a5.7,5.7,0,0,1-5.7,5.7H112.26a5.7,5.7,0,0,1-5.7-5.7h0A5.7,5.7,0,0,1,112.26,192.43Z" style="fill:#f0f0f0"></path><path d="M50.23,73.19S63.92,108.39,62.07,183C62.07,183,76.73,123.19,50.23,73.19Z" style="fill:#f0f0f0"></path><path d="M58.17,69.19s60.32,6.5,133.44-3.5C191.61,65.69,133.62,82.19,58.17,69.19Z" style="fill:#f0f0f0"></path><path d="M58.17,79.69s32.25,26.63,42.91,74.56C101.08,154.25,101.62,110.69,58.17,79.69Z" style="fill:#f0f0f0"></path><path d="M70.73,79.69s51.82,23.5,95.41,15C166.14,94.69,127.23,112.19,70.73,79.69Z" style="fill:#f0f0f0"></path><path d="M81.47,94.19s28.18,31.71,60.22,44.35C141.69,138.54,105.71,113.69,81.47,94.19Z" style="fill:#f0f0f0"></path><path d="M59.56,105.69s14.22-8.09,21.91,0c0,0,2.73-6.6,12.41-1.8,0,0-3.62-12.7,7.2-13.79,0,0-5.84-14.29,2.16-18.85,0,0-12.68,1.81-7.34,18.29,0,0-8,1.15-5.34,11.15,0,0-8.66-5-12,.66C78.56,101.35,66.56,96.69,59.56,105.69Z" style="fill:#f0f0f0"></path><path d="M61.9,126.48s17-12.16,30-2.81c0,0,3.07-8.29,14.7-7.31,0,0-.7-12.67,10.3-20.67,0,0-7.34-14,4.66-22.5,0,0-14.33,5.16-8.66,21a23.26,23.26,0,0,0-9.66,20.52s-10-2.36-11.51,5.64C91.73,120.35,73.9,111.93,61.9,126.48Z" style="fill:#f0f0f0"></path><path d="M63.56,151s12-15.59,34.69-7.45C98.25,143.55,78.9,139,63.56,151Z" style="fill:#f0f0f0"></path><path d="M127.56,130.81s-7.74-19.46,14.13-33.12c0,0-7.17-13.21,2.19-26.44,0,0-12.53,9.56-6.92,25C137,96.25,115.23,112.93,127.56,130.81Z" style="fill:#f0f0f0"></path><path d="M442,64.74S410.2,77.09,342.87,75.42C342.87,75.42,396.85,88.64,442,64.74Z" style="fill:#f5f5f5"></path><path d="M445.56,71.91s-5.86,54.4,3.16,120.35C448.72,192.26,433.83,140,445.56,71.91Z" style="fill:#f5f5f5"></path><path d="M436.09,71.91s-24,29.08-67.26,38.69C368.83,110.6,408.13,111.09,436.09,71.91Z" style="fill:#f5f5f5"></path><path d="M436.09,83.23s-21.2,46.75-13.53,86.06C422.56,169.29,406.78,134.19,436.09,83.23Z" style="fill:#f5f5f5"></path><path d="M423,92.92s-28.61,25.42-40,54.32C383,147.24,405.42,114.78,423,92.92Z" style="fill:#f5f5f5"></path><path d="M412.64,73.16s7.29,12.82,0,19.76c0,0,5.95,2.47,1.62,11.2,0,0,11.45-3.28,12.43,6.48,0,0,12.9-5.26,17,2,0,0-1.63-11.43-16.5-6.62,0,0-1-7.21-10.05-4.81,0,0,4.51-7.82-.6-10.82C416.55,90.3,420.76,79.47,412.64,73.16Z" style="fill:#f5f5f5"></path><path d="M393.89,75.26s11,15.34,2.53,27.06c0,0,7.48,2.77,6.59,13.27a23,23,0,0,1,18.65,9.28s12.63-6.61,20.29,4.21c0,0-4.66-12.93-18.94-7.81a21,21,0,0,0-18.51-8.72s2.13-9-5.09-10.38C399.41,102.17,407,86.09,393.89,75.26Z" style="fill:#f5f5f5"></path><path d="M371.76,76.77s14.07,10.86,6.73,31.29C378.49,108.06,382.6,90.6,371.76,76.77Z" style="fill:#f5f5f5"></path><path d="M390,134.5s17.55-7,29.87,12.74c0,0,11.92-6.47,23.85,2,0,0-8.63-11.3-22.55-6.24C421.15,143,406.1,123.37,390,134.5Z" style="fill:#f5f5f5"></path><rect x="342.31" y="159.2" width="63.4" height="70.31" transform="translate(14.33 -25.4) rotate(3.96)" style="fill:#f5f5f5"></rect><path d="M345.09,153.1l-5.35,77.31,69,4.78,5.35-77.31Zm56.8,73.26-54.16-3.75,4.21-60.68,54.16,3.75Z" style="fill:#e0e0e0"></path><path d="M342.69,152.94l-5.36,77.3,69,4.78,5.36-77.3Zm56.8,73.25-54.17-3.75,4.21-60.68,54.16,3.76Z" style="fill:#ebebeb"></path><path d="M364.21,200.5c.72-.22,2,1.13,2.43,1.77.74,1.2.45,4.25.9,5.6.31.91.87,3.45,1.84,3.41.55,0,.44-1.74.92-2a2.77,2.77,0,0,1,2.43.28c.36.39-.32,1.73,0,2.12a2,2,0,0,0,1.81.21c.47-.27.37-1.73.84-2a3.27,3.27,0,0,1,2.86.22c.41.39-.21,1.93.25,2.26a1.87,1.87,0,0,0,1.71-.38c.38-.42-.13-1.85.26-2.26s2.44-1,3-.51-.42,2.17.12,2.48c.31.18,1.08-.36,1.28-.66.84-1.27-.32-4.74.41-6.08.35-.63,1.6-1.78,2.32-1.73.43,0,1.12.81,1.23,1.23.22.8-.68,2.41-.88,3.22-.38,1.55-.33,5-1.35,6.25-.8,1-3.34,1.8-4.58,1.94a46,46,0,0,1-10.49-.35c-1.31-.26-4.07-.93-5-1.89s-1.18-3.63-1.62-4.83-2-3.64-2-5C363,202.91,363.37,200.75,364.21,200.5Z" style="fill:#fff"></path><path d="M391.91,189c.66-9.43-4.18-17.45-13.61-18.1s-15.33,6.61-16,16c-.45,6.49.51,12.23,5.64,15.49l-.58,3.19a1.31,1.31,0,0,0,1.2,1.54l.36,0a1.31,1.31,0,0,0,1.4-1.21l0-.54,3,.35-.09,1.25a1.31,1.31,0,0,0,1.22,1.39l1.79.13a1.32,1.32,0,0,0,1.4-1.22l.07-1.11,2.45-.25.22.65a1.3,1.3,0,0,0,1.51.86l2-.42a1.32,1.32,0,0,0,1-1.71l-.63-1.85C389.77,201,391.47,195.47,391.91,189Z" style="fill:#fff;opacity:0.9"></path><path d="M371.77,187.3c-.19,2.7-.95,4.85-3.11,4.71s-2.62-2.39-2.43-5.1.95-4.86,3.11-4.71S372,184.59,371.77,187.3Z" style="fill:#e0e0e0"></path><ellipse cx="383.83" cy="187.42" rx="4.91" ry="2.78" transform="translate(170.32 557.37) rotate(-86.04)" style="fill:#e0e0e0"></ellipse><path d="M379.83,197.26c-.08,1.05-1.47-.46-3.32-.59s-3.43,1.18-3.36.12,1.63-1.81,3.47-1.68S379.9,196.2,379.83,197.26Z" style="fill:#e0e0e0"></path></g><g id="freepik--Shadow--inject-104"><ellipse id="freepik--path--inject-104" cx="250" cy="412.39" rx="193.89" ry="11.32" style="fill:#f5f5f5"></ellipse></g><g id="freepik--post-2--inject-104"><rect x="335.96" y="268.66" width="89.54" height="103.61" transform="translate(-26.48 34.4) rotate(-5)" style="fill:#7367F0"></rect><rect x="335.96" y="268.66" width="89.54" height="103.61" transform="translate(-26.48 34.4) rotate(-5)" style="fill:#fff;opacity:0.7000000000000001"></rect><rect x="340.4" y="283.98" width="80.3" height="68.69" transform="translate(-26.3 34.38) rotate(-5)" style="fill:#7367F0"></rect><rect x="340.4" y="283.98" width="80.3" height="68.69" transform="translate(-26.3 34.38) rotate(-5)" style="opacity:0.30000000000000004"></rect><path d="M346.46,279.46a3.9,3.9,0,1,1-4.22-3.55A3.9,3.9,0,0,1,346.46,279.46Z" style="fill:#7367F0"></path><path d="M343.86,278.87c.07.85-.07,1.55-1.22,1.65s-1.42-.57-1.49-1.41.06-1.55,1.22-1.65S343.78,278,343.86,278.87Z" style="fill:#fff;opacity:0.9"></path><path d="M342.92,283.69a3.88,3.88,0,0,0,2.53-1.26c-.3-1.12-1-1.88-2.8-1.72s-2.35,1-2.45,2.18A3.86,3.86,0,0,0,342.92,283.69Z" style="fill:#fff;opacity:0.9"></path><path d="M350.4,280.58a1.46,1.46,0,0,1-.25-2.9l14-1.22a1.46,1.46,0,0,1,.26,2.9Z" style="fill:#263238"></path><path d="M350.4,280.58a1.46,1.46,0,0,1-.25-2.9l14-1.22a1.46,1.46,0,0,1,.26,2.9Z" style="fill:#fff;opacity:0.4"></path><path d="M410.57,273.85a.74.74,0,0,1-.66.79.72.72,0,0,1-.78-.66.71.71,0,0,1,.65-.78A.73.73,0,0,1,410.57,273.85Z" style="fill:#263238"></path><path d="M412.85,273.65a.73.73,0,0,1-.65.79.74.74,0,0,1-.79-.66.72.72,0,0,1,.66-.78A.71.71,0,0,1,412.85,273.65Z" style="fill:#263238"></path><path d="M415.14,273.45a.73.73,0,0,1-.65.79.74.74,0,0,1-.79-.66.72.72,0,0,1,.66-.78A.71.71,0,0,1,415.14,273.45Z" style="fill:#263238"></path><g style="opacity:0.7000000000000001"><path d="M410.57,273.85a.74.74,0,0,1-.66.79.72.72,0,0,1-.78-.66.71.71,0,0,1,.65-.78A.73.73,0,0,1,410.57,273.85Z" style="fill:#fff"></path><path d="M412.85,273.65a.73.73,0,0,1-.65.79.74.74,0,0,1-.79-.66.72.72,0,0,1,.66-.78A.71.71,0,0,1,412.85,273.65Z" style="fill:#fff"></path><path d="M415.14,273.45a.73.73,0,0,1-.65.79.74.74,0,0,1-.79-.66.72.72,0,0,1,.66-.78A.71.71,0,0,1,415.14,273.45Z" style="fill:#fff"></path></g><path d="M348.24,364.66l-2.14-1.79a2.08,2.08,0,0,1-.8-1.39,1.38,1.38,0,0,1,1.31-1.56,1.46,1.46,0,0,1,1.25.45,1.49,1.49,0,0,1,1.16-.66,1.37,1.37,0,0,1,1.56,1.31,2.06,2.06,0,0,1-.55,1.51Zm-1.58-4.1a.74.74,0,0,0-.73.86,1.46,1.46,0,0,0,.58,1h0l1.65,1.38,1.39-1.65a1.48,1.48,0,0,0,.4-1,.75.75,0,0,0-.87-.72c-.45,0-.58.22-.86.61l-.27.37-.34-.32C347.27,360.68,347.11,360.52,346.66,360.56Z" style="fill:#263238"></path><path d="M356.2,364.2a2.66,2.66,0,1,1,2.42-2.89A2.67,2.67,0,0,1,356.2,364.2Zm-.41-4.71a2.06,2.06,0,1,0,2.23,1.87A2.06,2.06,0,0,0,355.79,359.49Z" style="fill:#263238"></path><path d="M364.93,363.29a.56.56,0,0,1-.54-.27l-1-1.59-1.74-.7a.58.58,0,0,1,0-1.09l3.76-1.43a.6.6,0,0,1,.59.09.59.59,0,0,1,.19.56l-.76,4a.55.55,0,0,1-.46.46Zm-1.28-2.45a.7.7,0,0,1,.28.23l.92,1.49.72-3.72L362,360.19Zm-.27.57h0Z" style="fill:#263238"></path><g style="opacity:0.7000000000000001"><path d="M348.24,364.66l-2.14-1.79a2.08,2.08,0,0,1-.8-1.39,1.38,1.38,0,0,1,1.31-1.56,1.46,1.46,0,0,1,1.25.45,1.49,1.49,0,0,1,1.16-.66,1.37,1.37,0,0,1,1.56,1.31,2.06,2.06,0,0,1-.55,1.51Zm-1.58-4.1a.74.74,0,0,0-.73.86,1.46,1.46,0,0,0,.58,1h0l1.65,1.38,1.39-1.65a1.48,1.48,0,0,0,.4-1,.75.75,0,0,0-.87-.72c-.45,0-.58.22-.86.61l-.27.37-.34-.32C347.27,360.68,347.11,360.52,346.66,360.56Z" style="fill:#fff"></path><path d="M356.2,364.2a2.66,2.66,0,1,1,2.42-2.89A2.67,2.67,0,0,1,356.2,364.2Zm-.41-4.71a2.06,2.06,0,1,0,2.23,1.87A2.06,2.06,0,0,0,355.79,359.49Z" style="fill:#fff"></path><path d="M364.93,363.29a.56.56,0,0,1-.54-.27l-1-1.59-1.74-.7a.58.58,0,0,1,0-1.09l3.76-1.43a.6.6,0,0,1,.59.09.59.59,0,0,1,.19.56l-.76,4a.55.55,0,0,1-.46.46Zm-1.28-2.45a.7.7,0,0,1,.28.23l.92,1.49.72-3.72L362,360.19Zm-.27.57h0Z" style="fill:#fff"></path></g><path d="M348.36,369.93a1.5,1.5,0,0,1-.26-3l14.35-1.25a1.5,1.5,0,1,1,.26,3Z" style="fill:#263238"></path><path d="M348.36,369.93a1.5,1.5,0,0,1-.26-3l14.35-1.25a1.5,1.5,0,1,1,.26,3Z" style="fill:#fff;opacity:0.4"></path><path d="M421.85,358.45a.69.69,0,0,1-.32,0l-1.53-.59-1.4.84a.71.71,0,0,1-1.09-.56l-.36-4,5-.44.35,4.05a.7.7,0,0,1-.29.64A.73.73,0,0,1,421.85,358.45Zm-.09-.65a.08.08,0,0,0,.07,0s0,0,0-.07l-.3-3.39-3.7.33.3,3.39a.07.07,0,0,0,0,.06s0,0,.07,0l1.67-1Z" style="fill:#263238"></path><g style="opacity:0.7000000000000001"><path d="M421.85,358.45a.69.69,0,0,1-.32,0l-1.53-.59-1.4.84a.71.71,0,0,1-1.09-.56l-.36-4,5-.44.35,4.05a.7.7,0,0,1-.29.64A.73.73,0,0,1,421.85,358.45Zm-.09-.65a.08.08,0,0,0,.07,0s0,0,0-.07l-.3-3.39-3.7.33.3,3.39a.07.07,0,0,0,0,.06s0,0,.07,0l1.67-1Z" style="fill:#fff"></path></g><path d="M352.24,295l.56,6.45-1.49.13-.23-2.64-2.93.25.23,2.65-1.5.13-.56-6.46,1.49-.13.22,2.55,2.94-.26-.23-2.54Z" style="fill:#fff"></path><path d="M358.46,299.56l-3,.27-.45,1.43-1.53.13,2.31-6.7,1.47-.13,3.46,6.2-1.57.14Zm-.56-1.09-1.24-2.38-.81,2.56Z" style="fill:#fff"></path><path d="M360.83,294.25l1.5-.14.46,5.24,3.23-.28.11,1.22-4.73.41Z" style="fill:#fff"></path><path d="M366.4,293.76l1.5-.13.46,5.24,3.23-.29.11,1.22-4.73.41Z" style="fill:#fff"></path><path d="M373.71,299.3a3.27,3.27,0,0,1-2-2.76,3.24,3.24,0,0,1,.31-1.75,3.15,3.15,0,0,1,1.16-1.3,3.62,3.62,0,0,1,1.77-.59,3.78,3.78,0,0,1,1.85.27,3.22,3.22,0,0,1,1.36,1.08,3.26,3.26,0,0,1,.61,1.68,3.15,3.15,0,0,1-.31,1.75,3.22,3.22,0,0,1-1.16,1.3,3.73,3.73,0,0,1-1.77.59A3.8,3.8,0,0,1,373.71,299.3Zm2.75-1.35a2,2,0,0,0,.66-.8,2.08,2.08,0,0,0,.17-1.09,2.15,2.15,0,0,0-.35-1.05,2,2,0,0,0-.79-.67,2.1,2.1,0,0,0-1.06-.17,2,2,0,0,0-1,.35,1.92,1.92,0,0,0-.66.8,2.18,2.18,0,0,0-.17,1.09,2.27,2.27,0,0,0,.36,1,1.84,1.84,0,0,0,.79.67,2.18,2.18,0,0,0,2.06-.18Z" style="fill:#fff"></path><path d="M389.19,291.76l-1.55,6.64-1.6.14-1.8-4.24-1.09,4.5-1.59.14-2.69-6.27,1.55-.14,1.86,4.41,1.12-4.67,1.38-.12,1.88,4.44,1.1-4.7Z" style="fill:#fff"></path><path d="M395.48,296.51l.1,1.2-5,.44-.57-6.46,4.88-.43.11,1.2-3.4.3.12,1.4,3-.26.1,1.16-3,.26.13,1.5Z" style="fill:#fff"></path><path d="M401.67,296l.1,1.2-5,.44-.56-6.46,4.88-.43.1,1.2-3.39.3.12,1.4,3-.26.1,1.16-3,.26.13,1.5Z" style="fill:#fff"></path><path d="M408.32,290.09l.56,6.46-1.22.1L404.09,293l.35,3.91-1.48.13-.56-6.45,1.23-.11,3.55,3.64-.34-3.92Z" style="fill:#fff"></path><path d="M367.41,305.11a2.13,2.13,0,0,1,1,.72,2.26,2.26,0,0,1,.45,1.22,2.15,2.15,0,0,1-.23,1.27,2.23,2.23,0,0,1-.9.9,3.68,3.68,0,0,1-1.46.41l-1.3.11.15,1.78-1.49.13-.57-6.45,2.8-.25A3.49,3.49,0,0,1,367.41,305.11Zm-.3,2.93a1.16,1.16,0,0,0-.14-1.66,1.59,1.59,0,0,0-1.05-.2l-1.22.1.2,2.25,1.22-.11A1.58,1.58,0,0,0,367.11,308Z" style="fill:#fff"></path><path d="M374.13,309.34l-3,.27-.46,1.43-1.53.13,2.32-6.7,1.47-.13,3.45,6.2-1.56.14Zm-.57-1.09-1.24-2.38-.8,2.56Z" style="fill:#fff"></path><path d="M381.18,310.12l-1.4-1.69h-.08l-1.3.11.16,1.8-1.49.13L376.5,304l2.8-.25a3.49,3.49,0,0,1,1.51.16,2.13,2.13,0,0,1,1,.72,2.23,2.23,0,0,1,.45,1.22,2.14,2.14,0,0,1-.23,1.27,2.18,2.18,0,0,1-.92.88l1.63,2Zm-.81-4.91a1.53,1.53,0,0,0-1.05-.2l-1.22.1.2,2.25,1.22-.1a1.51,1.51,0,0,0,1-.39,1.16,1.16,0,0,0-.14-1.66Z" style="fill:#fff"></path><path d="M384.63,304.54l-2.06.18-.11-1.22,5.62-.49.11,1.22-2.06.18.45,5.24-1.49.13Z" style="fill:#fff"></path><path d="M392.23,306.85l.2,2.29-1.49.13-.21-2.31L387.87,303l1.59-.14,2,2.72,1.48-3,1.46-.13Z" style="fill:#fff"></path><path d="M365.1,320.42s-19.11-1.89-19,13.77,6.18,18.38,13.71,16.56a12.92,12.92,0,0,0,9.77-.25s6,1.11,8.12-1.67c0,0,12.6,1.06,9-17C383.54,316.12,365.1,320.42,365.1,320.42Z" style="fill:#7367F0;opacity:0.5"></path><path d="M365.1,320.42s-19.11-1.89-19,13.77,6.18,18.38,13.71,16.56a12.92,12.92,0,0,0,9.77-.25s6,1.11,8.12-1.67c0,0,12.6,1.06,9-17C383.54,316.12,365.1,320.42,365.1,320.42Z" style="fill:#7367F0"></path><path d="M365.1,320.42s-19.11-1.89-19,13.77,6.18,18.38,13.71,16.56a12.92,12.92,0,0,0,9.77-.25s6,1.11,8.12-1.67c0,0,12.6,1.06,9-17C383.54,316.12,365.1,320.42,365.1,320.42Z" style="fill:#fff;opacity:0.2"></path><path d="M357.65,326.67c4.41-7.91,2.14.79,3.64,2.12s.23-4.65,2.77-4.72,3.14,5.07,4.41,4.72-2-6.5,1.27-7.43c4.35-1.23,11.41-.24,15.92,7a17.21,17.21,0,0,1,1,3.4,25.68,25.68,0,0,1,.52,8.3s-.44,5.38-7.25,5.79c-4.09.25-3.59-9.58-5.93-9.48s2.7,10.7-.69,11.55-5-6.15-5-6.15,1,6.9-4.06,7.49S353.25,334.58,357.65,326.67Z" style="fill:#fff;opacity:0.30000000000000004"></path><path d="M365.3,319.9l2.2.25s-1.87.26-1.83,1.25c0,0-2.35-.12-2.64.56a2.31,2.31,0,0,0-2.3-1.41,3.62,3.62,0,0,1,2.07-.61s1.86-2.94,4.63-1.63l.85,1.22S365.66,318.75,365.3,319.9Z" style="fill:#263238"></path><path d="M375.39,333.37l-.12,2.93-1.6-1.87a16.55,16.55,0,0,1-9,1.88l-1.43,2.22-1.4-2.61a24.56,24.56,0,0,1-8-3.23s5.77,8.59,14.72,7.8l1.09-2.52L371,340c6.63-2,7.24-9.09,7.24-9.09A19.44,19.44,0,0,1,375.39,333.37Z" style="fill:#7367F0"></path><path d="M376.75,332.32c-.45.38-.91.73-1.36,1.05l-.1,2.49A12.23,12.23,0,0,0,376.75,332.32Z" style="fill:#263238"></path><path d="M374,336.41l-1.3-1.52a16.18,16.18,0,0,1-6,1.44,18.44,18.44,0,0,1-2.21.13l-1.33,2.07-1.25.11L360.6,336a24.92,24.92,0,0,1-5.68-1.93c2,2.25,6.38,6.41,12.39,6.44l1.07-2.46,1.24-.11,1.18,1.78a9.58,9.58,0,0,0,4.32-3.63Z" style="fill:#263238"></path><polygon points="359.56 333.37 359.34 328.13 366.01 331.77 359.56 333.37" style="fill:#7367F0"></polygon><polygon points="359.56 333.37 364.23 332.22 359.4 329.58 359.56 333.37" style="fill:#263238"></polygon><polygon points="368.7 331.49 373.62 325.86 375.06 331.17 368.7 331.49" style="fill:#7367F0"></polygon><polygon points="368.7 331.49 374.04 331.22 372.83 326.76 368.7 331.49" style="fill:#263238"></polygon><path d="M398.13,347.25s-1.48-8.16,2.88-13.37-2.72-10.94,4.64-12.94,4.56,5.58,7.75,9.06,4.45,15.52,4.45,15.52Z" style="fill:#263238"></path><path d="M411.49,321.33a5.69,5.69,0,1,1-6.17-5.17A5.71,5.71,0,0,1,411.49,321.33Z" style="fill:#263238"></path><path d="M400.91,320.28s-1.7-3-1.13-4.3c0,0,2.82.48,3.68,1.88Z" style="fill:#263238"></path><path d="M410.34,319s1.15-3.24.37-4.43c0,0-2.7,1-3.3,2.49Z" style="fill:#263238"></path><path d="M399.34,346.66s-13.95,2.57-14.14-9.56,10.64-3.92,9.61-.26-4.34,2.11-5.07.44,3.47,1.05,3.58-1-5.46-6.2-5.87-1,1.54,9.95,11.73,9.54Z" style="fill:#263238"></path><path d="M401.57,321.18s1.63-2.27,3.31-.17A2.41,2.41,0,0,1,401.57,321.18Z" style="fill:#fff"></path><path d="M404.88,324.26a1.42,1.42,0,0,0,.79.61c.64.11.82-.74.9-1.2l-.21.05a1.65,1.65,0,0,0,.75.73c.54.17.82-.38,1-.8.05-.14-.15-.24-.21-.1-.2.52-.54.92-1,.45a2.17,2.17,0,0,1-.31-.42c-.05-.09-.19,0-.21.05-.09.49-.29,1.31-.91.87a1.85,1.85,0,0,1-.37-.37.11.11,0,0,0-.18.13Z" style="fill:#7367F0"></path><path d="M404.15,321.53a1.11,1.11,0,0,0,.16-.67.94.94,0,0,0-.19-.52,1.68,1.68,0,0,0-1.93.22,1.32,1.32,0,0,0-.07.49,1.15,1.15,0,0,0,.23.58A2.22,2.22,0,0,0,404.15,321.53Z" style="fill:#7367F0"></path><path d="M406.65,320.74s1.63-2.28,3.31-.17A2.41,2.41,0,0,1,406.65,320.74Z" style="fill:#fff"></path><path d="M409.22,321.08a1.09,1.09,0,0,0,0-1.18,1.7,1.7,0,0,0-1.94.22,1.27,1.27,0,0,0-.07.48,1.08,1.08,0,0,0,.24.59A2.16,2.16,0,0,0,409.22,321.08Z" style="fill:#7367F0"></path></g><g id="freepik--post-1--inject-104"><rect x="328.82" y="142.95" width="89.54" height="103.61" transform="translate(18.4 -31.82) rotate(5)" style="fill:#7367F0"></rect><rect x="328.82" y="142.95" width="89.54" height="103.61" transform="translate(18.4 -31.82) rotate(5)" style="fill:#fff;opacity:0.7000000000000001"></rect><rect x="333.62" y="158.27" width="80.3" height="68.69" transform="translate(18.21 -31.84) rotate(5)" style="fill:#7367F0"></rect><rect x="333.62" y="158.27" width="80.3" height="68.69" transform="translate(18.21 -31.84) rotate(5)" style="opacity:0.30000000000000004"></rect><path d="M347,148.43a3.9,3.9,0,1,1-3.55-4.23A3.9,3.9,0,0,1,347,148.43Z" style="fill:#7367F0"></path><path d="M344.49,147.39c-.07.85-.33,1.52-1.48,1.42s-1.3-.81-1.22-1.66.33-1.51,1.48-1.41S344.57,146.55,344.49,147.39Z" style="fill:#fff;opacity:0.9"></path><path d="M342.73,152a3.88,3.88,0,0,0,2.71-.79c-.1-1.16-.67-2-2.45-2.19s-2.49.6-2.8,1.73A3.89,3.89,0,0,0,342.73,152Z" style="fill:#fff;opacity:0.9"></path><path d="M350.64,150.21a1.46,1.46,0,1,1,.26-2.9l14,1.22a1.46,1.46,0,0,1-.25,2.9Z" style="fill:#263238"></path><path d="M350.64,150.21a1.46,1.46,0,1,1,.26-2.9l14,1.22a1.46,1.46,0,0,1-.25,2.9Z" style="fill:#fff;opacity:0.4"></path><path d="M411.06,154a.72.72,0,1,1-.66-.78A.72.72,0,0,1,411.06,154Z" style="fill:#263238"></path><path d="M413.35,154.24a.72.72,0,0,1-.78.65.72.72,0,0,1,.12-1.44A.74.74,0,0,1,413.35,154.24Z" style="fill:#263238"></path><path d="M415.64,154.44a.73.73,0,0,1-.79.65.71.71,0,0,1-.65-.78.72.72,0,0,1,.78-.66A.74.74,0,0,1,415.64,154.44Z" style="fill:#263238"></path><g style="opacity:0.7000000000000001"><path d="M411.06,154a.72.72,0,1,1-.66-.78A.72.72,0,0,1,411.06,154Z" style="fill:#fff"></path><path d="M413.35,154.24a.72.72,0,0,1-.78.65.72.72,0,0,1,.12-1.44A.74.74,0,0,1,413.35,154.24Z" style="fill:#fff"></path><path d="M415.64,154.44a.73.73,0,0,1-.79.65.71.71,0,0,1-.65-.78.72.72,0,0,1,.78-.66A.74.74,0,0,1,415.64,154.44Z" style="fill:#fff"></path></g><path d="M333.91,232.64l-1.8-2.14a2.07,2.07,0,0,1-.54-1.51,1.37,1.37,0,0,1,1.56-1.3,1.49,1.49,0,0,1,1.16.66,1.46,1.46,0,0,1,1.25-.45,1.38,1.38,0,0,1,1.31,1.56,2.08,2.08,0,0,1-.8,1.39Zm-.84-4.31a.75.75,0,0,0-.87.72,1.48,1.48,0,0,0,.4,1h0l1.39,1.65,1.65-1.38a1.49,1.49,0,0,0,.58-1,.74.74,0,0,0-.73-.86c-.45,0-.61.12-1,.45l-.33.32-.27-.37C333.65,228.55,333.52,228.37,333.07,228.33Z" style="fill:#263238"></path><path d="M341.83,233.57a2.67,2.67,0,1,1,2.89-2.43A2.67,2.67,0,0,1,341.83,233.57Zm.42-4.71a2.06,2.06,0,1,0,1.86,2.23A2.06,2.06,0,0,0,342.25,228.86Z" style="fill:#263238"></path><path d="M350.59,234.19a.58.58,0,0,1-.49-.36l-.7-1.74-1.59-1A.59.59,0,0,1,348,230l4-.76a.58.58,0,0,1,.55.2.56.56,0,0,1,.1.58l-1.44,3.76a.56.56,0,0,1-.53.38Zm-.84-2.63a.51.51,0,0,1,.23.27l.66,1.62,1.35-3.53-3.72.71Zm-.36.51Z" style="fill:#263238"></path><g style="opacity:0.7000000000000001"><path d="M333.91,232.64l-1.8-2.14a2.07,2.07,0,0,1-.54-1.51,1.37,1.37,0,0,1,1.56-1.3,1.49,1.49,0,0,1,1.16.66,1.46,1.46,0,0,1,1.25-.45,1.38,1.38,0,0,1,1.31,1.56,2.08,2.08,0,0,1-.8,1.39Zm-.84-4.31a.75.75,0,0,0-.87.72,1.48,1.48,0,0,0,.4,1h0l1.39,1.65,1.65-1.38a1.49,1.49,0,0,0,.58-1,.74.74,0,0,0-.73-.86c-.45,0-.61.12-1,.45l-.33.32-.27-.37C333.65,228.55,333.52,228.37,333.07,228.33Z" style="fill:#fff"></path><path d="M341.83,233.57a2.67,2.67,0,1,1,2.89-2.43A2.67,2.67,0,0,1,341.83,233.57Zm.42-4.71a2.06,2.06,0,1,0,1.86,2.23A2.06,2.06,0,0,0,342.25,228.86Z" style="fill:#fff"></path><path d="M350.59,234.19a.58.58,0,0,1-.49-.36l-.7-1.74-1.59-1A.59.59,0,0,1,348,230l4-.76a.58.58,0,0,1,.55.2.56.56,0,0,1,.1.58l-1.44,3.76a.56.56,0,0,1-.53.38Zm-.84-2.63a.51.51,0,0,1,.23.27l.66,1.62,1.35-3.53-3.72.71Zm-.36.51Z" style="fill:#fff"></path></g><path d="M333.12,237.85a1.51,1.51,0,0,1-1.36-1.62,1.49,1.49,0,0,1,1.62-1.36l14.35,1.25a1.5,1.5,0,1,1-.27,3Z" style="fill:#263238"></path><path d="M333.12,237.85a1.51,1.51,0,0,1-1.36-1.62,1.49,1.49,0,0,1,1.62-1.36l14.35,1.25a1.5,1.5,0,1,1-.27,3Z" style="fill:#fff;opacity:0.4"></path><path d="M407.48,239.31a.75.75,0,0,1-.31-.1l-1.4-.84-1.52.58a.71.71,0,0,1-.7-.1.7.7,0,0,1-.28-.64l.35-4,5,.44-.35,4a.71.71,0,0,1-.39.58A.7.7,0,0,1,407.48,239.31Zm0-.66h.07a.06.06,0,0,0,0-.06l.3-3.39-3.71-.32-.3,3.39a.09.09,0,0,0,0,.06.08.08,0,0,0,.07,0l1.83-.7Z" style="fill:#263238"></path><g style="opacity:0.7000000000000001"><path d="M407.48,239.31a.75.75,0,0,1-.31-.1l-1.4-.84-1.52.58a.71.71,0,0,1-.7-.1.7.7,0,0,1-.28-.64l.35-4,5,.44-.35,4a.71.71,0,0,1-.39.58A.7.7,0,0,1,407.48,239.31Zm0-.66h.07a.06.06,0,0,0,0-.06l.3-3.39-3.71-.32-.3,3.39a.09.09,0,0,0,0,.06.08.08,0,0,0,.07,0l1.83-.7Z" style="fill:#fff"></path></g><path d="M357.24,165.58c-2-.62-6.59.42-8.12,1.83s-2.48,8-2.48,8,3.66,5.51,5.65,6.12,6.59-.42,8.12-1.83,2.48-8,2.48-8S359.23,166.2,357.24,165.58Z" style="fill:#7367F0"></path><path d="M338.76,171a2.4,2.4,0,0,0-1.28,2c.14.63,2,.75,2.19,1.38s-1.53,1.56-1.38,2.19,2,.75,2.18,1.38-1.52,1.56-1.38,2.19,2.05.75,2.19,1.38-1.53,1.55-1.38,2.18a2.39,2.39,0,0,0,2,1.28c2.47-.56,6-6.1,5.41-8.57S341.23,170.44,338.76,171Z" style="fill:#7367F0"></path><path d="M367.66,162.25a2.43,2.43,0,0,1,2,1.28c.14.63-1.52,1.56-1.38,2.19s2,.75,2.18,1.38-1.52,1.55-1.38,2.18,2,.75,2.19,1.39-1.53,1.55-1.38,2.18,2,.75,2.18,1.38a2.4,2.4,0,0,1-1.27,2c-2.47.56-8-2.95-8.56-5.42S365.19,162.81,367.66,162.25Z" style="fill:#7367F0"></path><g style="opacity:0.30000000000000004"><path d="M357.24,165.58c-2-.62-6.59.42-8.12,1.83s-2.48,8-2.48,8,3.66,5.51,5.65,6.12,6.59-.42,8.12-1.83,2.48-8,2.48-8S359.23,166.2,357.24,165.58Z" style="fill:#fff"></path><path d="M338.76,171a2.4,2.4,0,0,0-1.28,2c.14.63,2,.75,2.19,1.38s-1.53,1.56-1.38,2.19,2,.75,2.18,1.38-1.52,1.56-1.38,2.19,2.05.75,2.19,1.38-1.53,1.55-1.38,2.18a2.39,2.39,0,0,0,2,1.28c2.47-.56,6-6.1,5.41-8.57S341.23,170.44,338.76,171Z" style="fill:#fff"></path><path d="M367.66,162.25a2.43,2.43,0,0,1,2,1.28c.14.63-1.52,1.56-1.38,2.19s2,.75,2.18,1.38-1.52,1.55-1.38,2.18,2,.75,2.19,1.39-1.53,1.55-1.38,2.18,2,.75,2.18,1.38a2.4,2.4,0,0,1-1.27,2c-2.47.56-8-2.95-8.56-5.42S365.19,162.81,367.66,162.25Z" style="fill:#fff"></path></g><polygon points="355.18 172.73 354.39 174.87 357.02 174.07 355.18 172.73" style="fill:#7367F0"></polygon><path d="M359.16,173.78l.37.63-1,.72-.43-.63a11.77,11.77,0,0,1-3.69,1.49v.93h-1.45l.06-.76a6.32,6.32,0,0,1-2.7-.38c2.31,2.57,4.17,3.19,5.63,2.86l-.21-.91,1.37-.69.44.77c2-1.65,2.8-4.94,2.8-4.94C359.93,173.21,359.54,173.51,359.16,173.78Z" style="fill:#7367F0"></path><path d="M350.73,172l3.46.65a1.32,1.32,0,0,1-1.85,1.16C350.64,173.27,350.73,172,350.73,172Z" style="fill:#7367F0"></path><path d="M356.07,172.24l1.91-3a1.32,1.32,0,0,1,.37,2.16A1.91,1.91,0,0,1,356.07,172.24Z" style="fill:#7367F0"></path><polygon points="355.18 172.73 354.39 174.87 357.02 174.07 355.18 172.73" style="opacity:0.30000000000000004"></polygon><path d="M359.16,173.78l.37.63-1,.72-.43-.63a11.77,11.77,0,0,1-3.69,1.49v.93h-1.45l.06-.76a6.32,6.32,0,0,1-2.7-.38c2.31,2.57,4.17,3.19,5.63,2.86l-.21-.91,1.37-.69.44.77c2-1.65,2.8-4.94,2.8-4.94C359.93,173.21,359.54,173.51,359.16,173.78Z" style="opacity:0.30000000000000004"></path><path d="M350.73,172l3.46.65a1.32,1.32,0,0,1-1.85,1.16C350.64,173.27,350.73,172,350.73,172Z" style="opacity:0.30000000000000004"></path><path d="M356.07,172.24l1.91-3a1.32,1.32,0,0,1,.37,2.16A1.91,1.91,0,0,1,356.07,172.24Z" style="opacity:0.30000000000000004"></path><path d="M395.49,207.51c-1.7-1.19-6.4-1.62-8.29-.74s-4.79,6.81-4.79,6.81,1.8,6.36,3.5,7.56,6.4,1.62,8.29.74,4.8-6.81,4.8-6.81S397.2,208.71,395.49,207.51Z" style="fill:#7367F0"></path><path d="M376.24,207a2.42,2.42,0,0,0-1.83,1.53c-.06.65,1.71,1.34,1.66,2s-1.93,1-2,1.66,1.72,1.34,1.66,2-1.93,1-2,1.66,1.72,1.34,1.66,2-1.93,1-2,1.66a2.37,2.37,0,0,0,1.53,1.83c2.52.23,7.54-4,7.77-6.5S378.76,207.23,376.24,207Z" style="fill:#7367F0"></path><path d="M406.43,207.54a2.4,2.4,0,0,1,1.53,1.83c-.06.65-1.93,1-2,1.66s1.71,1.34,1.65,2-1.92,1-2,1.65,1.72,1.35,1.66,2-1.93,1-2,1.66,1.72,1.34,1.66,2a2.38,2.38,0,0,1-1.83,1.53c-2.52-.23-6.71-5.26-6.49-7.78S403.91,207.32,406.43,207.54Z" style="fill:#7367F0"></path><g style="opacity:0.5"><path d="M395.49,207.51c-1.7-1.19-6.4-1.62-8.29-.74s-4.79,6.81-4.79,6.81,1.8,6.36,3.5,7.56,6.4,1.62,8.29.74,4.8-6.81,4.8-6.81S397.2,208.71,395.49,207.51Z" style="fill:#fff"></path><path d="M376.24,207a2.42,2.42,0,0,0-1.83,1.53c-.06.65,1.71,1.34,1.66,2s-1.93,1-2,1.66,1.72,1.34,1.66,2-1.93,1-2,1.66,1.72,1.34,1.66,2-1.93,1-2,1.66a2.37,2.37,0,0,0,1.53,1.83c2.52.23,7.54-4,7.77-6.5S378.76,207.23,376.24,207Z" style="fill:#fff"></path><path d="M406.43,207.54a2.4,2.4,0,0,1,1.53,1.83c-.06.65-1.93,1-2,1.66s1.71,1.34,1.65,2-1.92,1-2,1.65,1.72,1.35,1.66,2-1.93,1-2,1.66,1.72,1.34,1.66,2a2.38,2.38,0,0,1-1.83,1.53c-2.52-.23-6.71-5.26-6.49-7.78S403.91,207.32,406.43,207.54Z" style="fill:#fff"></path></g><polygon points="391.34 213.69 389.94 215.48 392.68 215.53 391.34 213.69" style="fill:#7367F0"></polygon><path d="M394.81,215.91l.15.71-1.2.37-.21-.73a11.86,11.86,0,0,1-4,.29l-.29.88-1.38-.43.29-.71a6.28,6.28,0,0,1-2.45-1.19c1.41,3.15,3,4.32,4.48,4.45l.08-.93,1.52-.23.18.86c2.37-1,4.18-3.85,4.18-3.85Q395.47,215.7,394.81,215.91Z" style="fill:#7367F0"></path><path d="M387.33,211.63l3.09,1.68a1.32,1.32,0,0,1-2.12.54A1.94,1.94,0,0,1,387.33,211.63Z" style="fill:#7367F0"></path><path d="M392.34,213.49l2.72-2.22a1.32,1.32,0,0,1-.31,2.17A1.91,1.91,0,0,1,392.34,213.49Z" style="fill:#7367F0"></path><polygon points="391.34 213.69 389.94 215.48 392.68 215.53 391.34 213.69" style="opacity:0.30000000000000004"></polygon><path d="M394.81,215.91l.15.71-1.2.37-.21-.73a11.86,11.86,0,0,1-4,.29l-.29.88-1.38-.43.29-.71a6.28,6.28,0,0,1-2.45-1.19c1.41,3.15,3,4.32,4.48,4.45l.08-.93,1.52-.23.18.86c2.37-1,4.18-3.85,4.18-3.85Q395.47,215.7,394.81,215.91Z" style="opacity:0.30000000000000004"></path><path d="M387.33,211.63l3.09,1.68a1.32,1.32,0,0,1-2.12.54A1.94,1.94,0,0,1,387.33,211.63Z" style="opacity:0.30000000000000004"></path><path d="M392.34,213.49l2.72-2.22a1.32,1.32,0,0,1-.31,2.17A1.91,1.91,0,0,1,392.34,213.49Z" style="opacity:0.30000000000000004"></path><path d="M403.12,173.2a7.11,7.11,0,0,0-4.08-3.13c-1.28-.17-4.76,2-4.76,2s-1.16,3.92-.67,5.11a7.13,7.13,0,0,0,4.09,3.13c1.28.17,4.76-2,4.76-2S403.62,174.39,403.12,173.2Z" style="fill:#7367F0"></path><path d="M393.23,166.57a1.48,1.48,0,0,0-1.46.19c-.24.32.45,1.27.21,1.59s-1.34-.11-1.59.21.46,1.27.21,1.58-1.34-.1-1.58.21.45,1.27.21,1.59-1.34-.11-1.59.21a1.48,1.48,0,0,0,.2,1.46c1.24.95,5.25.41,6.21-.83S394.47,167.52,393.23,166.57Z" style="fill:#7367F0"></path><path d="M408.83,176.83a1.48,1.48,0,0,1,.19,1.46c-.24.32-1.34-.1-1.58.21s.45,1.27.21,1.59-1.34-.11-1.59.21.46,1.27.21,1.58-1.34-.1-1.58.21.45,1.27.21,1.59a1.48,1.48,0,0,1-1.46.19c-1.25-1-1.77-5-.82-6.21S407.59,175.88,408.83,176.83Z" style="fill:#7367F0"></path><g style="opacity:0.4"><path d="M403.12,173.2a7.11,7.11,0,0,0-4.08-3.13c-1.28-.17-4.76,2-4.76,2s-1.16,3.92-.67,5.11a7.13,7.13,0,0,0,4.09,3.13c1.28.17,4.76-2,4.76-2S403.62,174.39,403.12,173.2Z" style="fill:#fff"></path><path d="M393.23,166.57a1.48,1.48,0,0,0-1.46.19c-.24.32.45,1.27.21,1.59s-1.34-.11-1.59.21.46,1.27.21,1.58-1.34-.1-1.58.21.45,1.27.21,1.59-1.34-.11-1.59.21a1.48,1.48,0,0,0,.2,1.46c1.24.95,5.25.41,6.21-.83S394.47,167.52,393.23,166.57Z" style="fill:#fff"></path><path d="M408.83,176.83a1.48,1.48,0,0,1,.19,1.46c-.24.32-1.34-.1-1.58.21s.45,1.27.21,1.59-1.34-.11-1.59.21.46,1.27.21,1.58-1.34-.1-1.58.21.45,1.27.21,1.59a1.48,1.48,0,0,1-1.46.19c-1.25-1-1.77-5-.82-6.21S407.59,175.88,408.83,176.83Z" style="fill:#fff"></path></g><polygon points="398.91 175.06 397.59 175.53 399 176.46 398.91 175.06" style="fill:#7367F0"></polygon><path d="M400,177.36l-.15.43-.75-.21.12-.45a7.45,7.45,0,0,1-2.16-1.16l-.45.36-.57-.68.38-.27a3.86,3.86,0,0,1-.89-1.44c-.3,2.12.14,3.25.88,3.81l.35-.46.86.38-.19.51a6.81,6.81,0,0,0,3.46-.63C400.56,177.5,400.27,177.43,400,177.36Z" style="fill:#7367F0"></path><path d="M397.5,172.65l1.06,1.9a.82.82,0,0,1-1.29-.42A1.19,1.19,0,0,1,397.5,172.65Z" style="fill:#7367F0"></path><path d="M399.5,175.28l2.16-.26a.82.82,0,0,1-.88,1C399.68,176.05,399.5,175.28,399.5,175.28Z" style="fill:#7367F0"></path><polygon points="398.91 175.06 397.59 175.53 399 176.46 398.91 175.06" style="opacity:0.30000000000000004"></polygon><path d="M400,177.36l-.15.43-.75-.21.12-.45a7.45,7.45,0,0,1-2.16-1.16l-.45.36-.57-.68.38-.27a3.86,3.86,0,0,1-.89-1.44c-.3,2.12.14,3.25.88,3.81l.35-.46.86.38-.19.51a6.81,6.81,0,0,0,3.46-.63C400.56,177.5,400.27,177.43,400,177.36Z" style="opacity:0.30000000000000004"></path><path d="M397.5,172.65l1.06,1.9a.82.82,0,0,1-1.29-.42A1.19,1.19,0,0,1,397.5,172.65Z" style="opacity:0.30000000000000004"></path><path d="M399.5,175.28l2.16-.26a.82.82,0,0,1-.88,1C399.68,176.05,399.5,175.28,399.5,175.28Z" style="opacity:0.30000000000000004"></path><path d="M353.35,212.35a7.08,7.08,0,0,0-4.34-2.78c-1.28,0-4.57,2.38-4.57,2.38s-.82,4-.23,5.14a7.11,7.11,0,0,0,4.34,2.77c1.28.06,4.57-2.37,4.57-2.37S353.94,213.49,353.35,212.35Z" style="fill:#7367F0"></path><path d="M342.93,206.58a1.49,1.49,0,0,0-1.44.32c-.21.33.56,1.22.34,1.56s-1.34,0-1.56.34.56,1.23.35,1.56-1.35,0-1.56.35.55,1.22.34,1.56-1.35,0-1.56.34a1.48,1.48,0,0,0,.31,1.44c1.32.85,5.28,0,6.12-1.35S344.25,207.42,342.93,206.58Z" style="fill:#7367F0"></path><path d="M359.34,215.48a1.46,1.46,0,0,1,.32,1.44c-.21.34-1.34,0-1.56.35s.56,1.22.34,1.56-1.34,0-1.56.34.56,1.23.35,1.56-1.35,0-1.57.35.56,1.22.35,1.56a1.51,1.51,0,0,1-1.44.32c-1.32-.85-2.19-4.81-1.34-6.12S358,214.64,359.34,215.48Z" style="fill:#7367F0"></path><g style="opacity:0.30000000000000004"><path d="M353.35,212.35a7.08,7.08,0,0,0-4.34-2.78c-1.28,0-4.57,2.38-4.57,2.38s-.82,4-.23,5.14a7.11,7.11,0,0,0,4.34,2.77c1.28.06,4.57-2.37,4.57-2.37S353.94,213.49,353.35,212.35Z" style="fill:#fff"></path><path d="M342.93,206.58a1.49,1.49,0,0,0-1.44.32c-.21.33.56,1.22.34,1.56s-1.34,0-1.56.34.56,1.23.35,1.56-1.35,0-1.56.35.55,1.22.34,1.56-1.35,0-1.56.34a1.48,1.48,0,0,0,.31,1.44c1.32.85,5.28,0,6.12-1.35S344.25,207.42,342.93,206.58Z" style="fill:#fff"></path><path d="M359.34,215.48a1.46,1.46,0,0,1,.32,1.44c-.21.34-1.34,0-1.56.35s.56,1.22.34,1.56-1.34,0-1.56.34.56,1.23.35,1.56-1.35,0-1.57.35.56,1.22.35,1.56a1.51,1.51,0,0,1-1.44.32c-1.32-.85-2.19-4.81-1.34-6.12S358,214.64,359.34,215.48Z" style="fill:#fff"></path></g><polygon points="349.31 214.56 348.03 215.13 349.52 215.94 349.31 214.56" style="fill:#7367F0"></polygon><path d="M350.58,216.76l-.12.43-.76-.14.09-.46a7.13,7.13,0,0,1-2.26-1l-.41.4-.63-.63.36-.3a4,4,0,0,1-1-1.36c-.12,2.14.41,3.23,1.19,3.72l.31-.48.9.3-.15.52a6.75,6.75,0,0,0,3.39-.92A8.51,8.51,0,0,1,350.58,216.76Z" style="fill:#7367F0"></path><path d="M347.7,212.28l1.22,1.8a.82.82,0,0,1-1.32-.31A1.18,1.18,0,0,1,347.7,212.28Z" style="fill:#7367F0"></path><path d="M349.91,214.73l2.13-.44a.81.81,0,0,1-.78,1.1A1.2,1.2,0,0,1,349.91,214.73Z" style="fill:#7367F0"></path><polygon points="349.31 214.56 348.03 215.13 349.52 215.94 349.31 214.56" style="opacity:0.30000000000000004"></polygon><path d="M350.58,216.76l-.12.43-.76-.14.09-.46a7.13,7.13,0,0,1-2.26-1l-.41.4-.63-.63.36-.3a4,4,0,0,1-1-1.36c-.12,2.14.41,3.23,1.19,3.72l.31-.48.9.3-.15.52a6.75,6.75,0,0,0,3.39-.92A8.51,8.51,0,0,1,350.58,216.76Z" style="opacity:0.30000000000000004"></path><path d="M347.7,212.28l1.22,1.8a.82.82,0,0,1-1.32-.31A1.18,1.18,0,0,1,347.7,212.28Z" style="opacity:0.30000000000000004"></path><path d="M349.91,214.73l2.13-.44a.81.81,0,0,1-.78,1.1A1.2,1.2,0,0,1,349.91,214.73Z" style="opacity:0.30000000000000004"></path><path d="M363.44,184.94l-1.79-.16.09-1.06,4.88.43-.09,1.06-1.79-.16-.4,4.54-1.3-.11Z" style="fill:#fff"></path><path d="M370.39,190.12l-.94-1.65h-.07l-1.12-.1-.14,1.56-1.3-.11.49-5.6,2.43.21a3.44,3.44,0,0,1,1.27.36,2,2,0,0,1,.78.78,2,2,0,0,1,.2,1.11,1.89,1.89,0,0,1-.4,1,1.86,1.86,0,0,1-.91.62l1.1,1.91Zm.05-4.32a1.45,1.45,0,0,0-.87-.33l-1.05-.09-.17,2,1,.09a1.28,1.28,0,0,0,.91-.18,1,1,0,0,0,.13-1.44Z" style="fill:#fff"></path><path d="M373.19,184.72l1.29.12-.49,5.59-1.29-.11Z" style="fill:#fff"></path><path d="M376.48,190.37a2.77,2.77,0,0,1-1-1.12,2.91,2.91,0,0,1-.27-1.53,2.86,2.86,0,0,1,.53-1.45,2.8,2.8,0,0,1,1.18-.94,3.22,3.22,0,0,1,1.59-.24,3.52,3.52,0,0,1,1.29.37,2.63,2.63,0,0,1,.92.83l-.9.69a1.8,1.8,0,0,0-1.35-.78,1.83,1.83,0,0,0-.94.15,1.65,1.65,0,0,0-.7.58,1.93,1.93,0,0,0-.3.91,1.83,1.83,0,0,0,.14.94,1.57,1.57,0,0,0,.58.69,1.83,1.83,0,0,0,.91.31,1.76,1.76,0,0,0,1.46-.54l.77.84a2.72,2.72,0,0,1-1.06.66,3.26,3.26,0,0,1-1.34.14A3.2,3.2,0,0,1,376.48,190.37Z" style="fill:#fff"></path><path d="M383.41,189l-.82.72-.12,1.42-1.29-.12.49-5.59,1.29.11-.23,2.61,2.71-2.39,1.44.12-2.54,2.29,2.18,3.32L385,191.4Z" style="fill:#fff"></path><path d="M353.89,198.06a2.87,2.87,0,0,1,.44-5,3.3,3.3,0,0,1,1.61-.24,3.36,3.36,0,0,1,1.53.52,2.82,2.82,0,0,1,1.27,2.65,2.66,2.66,0,0,1-.53,1.44,2.8,2.8,0,0,1-1.18.94,3.27,3.27,0,0,1-1.6.24A3.31,3.31,0,0,1,353.89,198.06Zm2.55-.74a1.6,1.6,0,0,0,.68-.58,1.83,1.83,0,0,0,.31-.91,2,2,0,0,0-.14-1,1.68,1.68,0,0,0-.58-.69,1.81,1.81,0,0,0-.87-.3,1.78,1.78,0,0,0-.92.15,1.66,1.66,0,0,0-.68.58,2,2,0,0,0-.16,1.85,1.61,1.61,0,0,0,.57.69,1.87,1.87,0,0,0,1.79.16Z" style="fill:#fff"></path><path d="M363,199.14l-.94-1.65H362l-1.12-.1-.14,1.56-1.3-.11.49-5.6,2.43.22a3.1,3.1,0,0,1,1.27.36,1.87,1.87,0,0,1,.78.77,2,2,0,0,1,.2,1.11,2,2,0,0,1-.4,1.05,1.84,1.84,0,0,1-.91.61l1.1,1.91Zm0-4.32a1.45,1.45,0,0,0-.87-.33l-1.05-.09-.17,1.95,1.05.1a1.39,1.39,0,0,0,.91-.18.92.92,0,0,0,.37-.7A1,1,0,0,0,363.09,194.82Z" style="fill:#fff"></path><path d="M369.17,195.1l-1.79-.15.09-1.06,4.88.43-.1,1.05-1.79-.15-.39,4.54-1.3-.12Z" style="fill:#fff"></path><path d="M376.12,200.29l-.95-1.66h-.06l-1.13-.1-.13,1.56-1.3-.12.49-5.59,2.42.21a3,3,0,0,1,1.27.36,2,2,0,0,1,.79.78,2,2,0,0,1,.2,1.1,1.89,1.89,0,0,1-.4,1,1.86,1.86,0,0,1-.91.62l1.1,1.91Zm0-4.32a1.29,1.29,0,0,0-.86-.33l-1.06-.09-.17,1.95,1.06.09a1.39,1.39,0,0,0,.91-.18.88.88,0,0,0,.37-.69A.9.9,0,0,0,376.16,196Z" style="fill:#fff"></path><path d="M382.85,199.83l-.09,1-4.33-.38.49-5.6,4.23.37-.09,1-2.95-.26-.1,1.22,2.6.23-.09,1-2.6-.22-.11,1.29Z" style="fill:#fff"></path><path d="M387.58,200.08l-2.6-.23-.6,1.16-1.32-.12,3-5.37,1.28.11,2,5.81-1.36-.12Zm-.32-1-.7-2.22-1.07,2.07Z" style="fill:#fff"></path><path d="M391.19,197l-1.79-.16.09-1.05,4.88.42-.09,1.06-1.79-.16-.4,4.54-1.3-.11Z" style="fill:#fff"></path></g><g id="freepik--Device--inject-104"><path d="M171.49,114H197.2l25.92,296.31h-25.7A24,24,0,0,1,174,388.78L151.8,135.61A19.46,19.46,0,0,1,171.49,114Z" style="fill:#263238"></path><path d="M171.49,114H197.2l25.92,296.31h-25.7A24,24,0,0,1,174,388.78L151.8,135.61A19.46,19.46,0,0,1,171.49,114Z" style="fill:#fff;opacity:0.5"></path><path d="M155.57,143.75a2.3,2.3,0,0,0-2.25-2.06,1.86,1.86,0,0,0-1.88,2.06l1.73,19.86a2.31,2.31,0,0,0,2.25,2.07,1.87,1.87,0,0,0,1.89-2.07Z" style="fill:#7367F0"></path><path d="M155.57,143.75a2.3,2.3,0,0,0-2.25-2.06,1.86,1.86,0,0,0-1.88,2.06l1.73,19.86a2.31,2.31,0,0,0,2.25,2.07,1.87,1.87,0,0,0,1.89-2.07Z" style="fill:#fff;opacity:0.30000000000000004"></path><path d="M202.68,410.35H308.6a19.45,19.45,0,0,0,19.69-21.57L306.14,135.61A24,24,0,0,0,282.68,114H176.76a19.45,19.45,0,0,0-19.69,21.57l22.15,253.17A24,24,0,0,0,202.68,410.35Z" style="fill:#7367F0"></path><path d="M177.19,119h27.53a4,4,0,0,1,3.83,3.12l.18.87a9.76,9.76,0,0,0,9.35,7.64h26.17a7.85,7.85,0,0,0,8-7.64l0-.87a3.22,3.22,0,0,1,3.28-3.12h27.53a18.5,18.5,0,0,1,18.08,16.62l22.15,253.17a15,15,0,0,1-15.17,16.62H202.25a18.5,18.5,0,0,1-18.08-16.62L162,135.61A15,15,0,0,1,177.19,119Z" style="fill:#7367F0"></path><path d="M177.19,119h27.53a4,4,0,0,1,3.83,3.12l.18.87a9.76,9.76,0,0,0,9.35,7.64h26.17a7.85,7.85,0,0,0,8-7.64l0-.87a3.22,3.22,0,0,1,3.28-3.12h27.53a18.5,18.5,0,0,1,18.08,16.62l22.15,253.17a15,15,0,0,1-15.17,16.62H202.25a18.5,18.5,0,0,1-18.08-16.62L162,135.61A15,15,0,0,1,177.19,119Z" style="fill:#fff;opacity:0.9"></path><g style="opacity:0.2"><path d="M236.8,121.79a2.34,2.34,0,0,0,2.29,2.1,1.9,1.9,0,0,0,1.92-2.1,2.34,2.34,0,0,0-2.29-2.1A1.9,1.9,0,0,0,236.8,121.79Z"></path><path d="M221.7,119.69h7.21a2.34,2.34,0,0,1,2.29,2.1,1.9,1.9,0,0,1-1.92,2.1h-7.21a2.34,2.34,0,0,1-2.29-2.1A1.9,1.9,0,0,1,221.7,119.69Z"></path></g><polygon points="289.22 130.58 286.99 130.58 286.8 128.35 289.02 128.35 289.22 130.58" style="fill:#7367F0"></polygon><polygon points="284.57 128.35 284.76 130.58 282.54 130.58 282.34 128.35 282.15 126.12 284.38 126.12 284.57 128.35" style="fill:#7367F0"></polygon><polygon points="279.73 123.89 279.92 126.12 280.12 128.35 280.31 130.58 278.08 130.58 277.89 128.35 277.69 126.12 277.5 123.89 279.73 123.89" style="fill:#7367F0"></polygon><path d="M174.15,124l.57,6.54h9.8l-.14-1.64h1.09l-.29-3.26h-1.09L184,124Zm5.59,1.64H183l.29,3.26H180Z" style="fill:#7367F0"></path><polygon points="181.04 353.06 320.21 353.06 308.02 213.66 168.84 213.66 181.04 353.06" style="fill:#7367F0"></polygon><polygon points="181.04 353.06 320.21 353.06 308.02 213.66 168.84 213.66 181.04 353.06" style="opacity:0.30000000000000004"></polygon><path d="M179.81,339l1.23,14H320.21l-1.39-15.88C273,327.2,225.45,327.34,179.81,339Z" style="opacity:0.30000000000000004"></path><path d="M219.46,314.67c-.58-2.75,2.18-5.38,6.15-5.87s7.67,1.34,8.25,4.09l2.06-.25,3.22,18.8L222,333.56l-4.63-18.63Z" style="fill:#263238"></path><path d="M219.46,314.67c-.58-2.75,2.18-5.38,6.15-5.87s7.67,1.34,8.25,4.09l2.06-.25,3.22,18.8L222,333.56l-4.63-18.63Z" style="fill:#fff;opacity:0.1"></path><path d="M190.82,325.21c-.72-2.12,1.15-4.48,4.19-5.26s6.07.31,6.79,2.44l1.57-.41,4.36,14.58-13,3.36-5.43-14.31Z" style="fill:#263238"></path><path d="M190.82,325.21c-.72-2.12,1.15-4.48,4.19-5.26s6.07.31,6.79,2.44l1.57-.41,4.36,14.58-13,3.36-5.43-14.31Z" style="fill:#fff;opacity:0.2"></path><path d="M181.22,333.59c-.4-1.18.64-2.48,2.33-2.91s3.36.17,3.76,1.35l.87-.23,2.42,8.09-7.24,1.86-3-7.94Z" style="fill:#263238"></path><path d="M210.46,327.94c-.24-.94.67-1.9,2-2.12s2.66.35,2.9,1.29l.71-.11,1.38,6.47-5.86,1-1.87-6.39Z" style="fill:#263238"></path><path d="M290.87,324c0-1.57-1.88-3-4.19-3.2s-4.18.91-4.18,2.48l-1.2-.1.43,10.73,9.95.84.39-10.65Z" style="fill:#263238"></path><path d="M290.87,324c0-1.57-1.88-3-4.19-3.2s-4.18.91-4.18,2.48l-1.2-.1.43,10.73,9.95.84.39-10.65Z" style="fill:#fff;opacity:0.1"></path><path d="M308.37,329.34c.16-1.22-1.19-2.51-3-2.89s-3.41.3-3.56,1.52l-.94-.2-.72,8.35,7.8,1.64,1.36-8.23Z" style="fill:#263238"></path><path d="M308.37,329.34c.16-1.22-1.19-2.51-3-2.89s-3.41.3-3.56,1.52l-.94-.2-.72,8.35,7.8,1.64,1.36-8.23Z" style="fill:#fff;opacity:0.1"></path><path d="M314.82,333.89c.08-.67-.66-1.39-1.67-1.6s-1.89.17-2,.84l-.52-.11-.4,4.63,4.32.91.76-4.56Z" style="fill:#263238"></path><path d="M297.57,331.29c0-.54-.61-1.06-1.41-1.16s-1.46.25-1.49.79l-.41-.05v3.7l3.44.44.29-3.66Z" style="fill:#263238"></path><ellipse cx="219.99" cy="167.66" rx="8.84" ry="9.64" transform="translate(-53.24 210.64) rotate(-46.25)" style="fill:#7367F0"></ellipse><path d="M221,179.28a13,13,0,0,1-12.64-11.62A10.5,10.5,0,0,1,219,156a13,13,0,0,1,12.64,11.63A10.49,10.49,0,0,1,221,179.28Zm-1.92-21.95a9.32,9.32,0,0,0-9.42,10.33A11.5,11.5,0,0,0,220.9,178a9.32,9.32,0,0,0,9.42-10.32A11.51,11.51,0,0,0,219.09,157.33Z" style="fill:#7367F0"></path><path d="M223,165.73c.18,2-.15,3.63-2.9,3.63s-3.36-1.62-3.53-3.63.15-3.64,2.9-3.64S222.86,163.72,223,165.73Z" style="fill:#fff;opacity:0.9"></path><path d="M220.8,176.89a8.41,8.41,0,0,0,6-2.44c-.72-2.71-2.42-4.64-6.64-4.64s-5.58,1.93-5.82,4.64A10,10,0,0,0,220.8,176.89Z" style="fill:#fff;opacity:0.9"></path><path d="M181.73,186.74a2.31,2.31,0,0,1-2.26-2.08,1.88,1.88,0,0,1,1.9-2.08h20a2.32,2.32,0,0,1,2.27,2.08,1.88,1.88,0,0,1-1.9,2.08Z" style="fill:#263238"></path><path d="M181.73,186.74a2.31,2.31,0,0,1-2.26-2.08,1.88,1.88,0,0,1,1.9-2.08h20a2.32,2.32,0,0,1,2.27,2.08,1.88,1.88,0,0,1-1.9,2.08Z" style="fill:#fff;opacity:0.8"></path><ellipse cx="190.08" cy="167.66" rx="9.3" ry="10.15" transform="translate(-62.47 189.04) rotate(-46.25)" style="fill:#263238"></ellipse><ellipse cx="190.08" cy="167.66" rx="9.3" ry="10.15" transform="translate(-62.47 189.04) rotate(-46.25)" style="fill:#fff;opacity:0.6000000000000001"></ellipse><path d="M193.29,165.62c.19,2.12-.16,3.84-3,3.84s-3.53-1.72-3.72-3.84.16-3.83,3-3.83S193.11,163.51,193.29,165.62Z" style="fill:#fff;opacity:0.8"></path><path d="M190.94,177.37a8.84,8.84,0,0,0,6.33-2.56c-.76-2.86-2.55-4.89-7-4.89s-5.87,2-6.13,4.89A10.5,10.5,0,0,0,190.94,177.37Z" style="fill:#fff;opacity:0.8"></path><path d="M200.31,173.41a3.57,3.57,0,0,1-3.62,4,4.4,4.4,0,0,1-4.3-4,3.56,3.56,0,0,1,3.61-3.95A4.41,4.41,0,0,1,200.31,173.41Z" style="fill:#7367F0"></path><polygon points="198.47 173.01 196.71 173.01 196.56 171.25 195.76 171.25 195.91 173.01 194.15 173.01 194.22 173.81 195.98 173.81 196.14 175.58 196.93 175.58 196.78 173.81 198.54 173.81 198.47 173.01" style="fill:#fff"></polygon><path d="M211.64,186.74a2.31,2.31,0,0,1-2.26-2.08,1.88,1.88,0,0,1,1.9-2.08h20a2.33,2.33,0,0,1,2.27,2.08,1.88,1.88,0,0,1-1.91,2.08Z" style="fill:#263238"></path><path d="M211.64,186.74a2.31,2.31,0,0,1-2.26-2.08,1.88,1.88,0,0,1,1.9-2.08h20a2.33,2.33,0,0,1,2.27,2.08,1.88,1.88,0,0,1-1.91,2.08Z" style="fill:#fff;opacity:0.8"></path><ellipse cx="250.13" cy="167.66" rx="8.84" ry="9.64" transform="translate(-43.94 232.43) rotate(-46.25)" style="fill:#7367F0"></ellipse><ellipse cx="250.13" cy="167.66" rx="8.84" ry="9.64" transform="translate(-43.94 232.43) rotate(-46.25)" style="fill:#fff;opacity:0.5"></ellipse><path d="M251.15,179.28a13,13,0,0,1-12.64-11.62A10.49,10.49,0,0,1,249.11,156a13,13,0,0,1,12.65,11.63A10.49,10.49,0,0,1,251.15,179.28Zm-1.92-21.95a9.33,9.33,0,0,0-9.43,10.33A11.51,11.51,0,0,0,251,178a9.32,9.32,0,0,0,9.42-10.32A11.51,11.51,0,0,0,249.23,157.33Z" style="fill:#7367F0"></path><ellipse cx="249.96" cy="165.73" rx="3.17" ry="3.7" transform="translate(-41.37 94.51) rotate(-19.81)" style="fill:#fff;opacity:0.9"></ellipse><path d="M250.94,176.89a8.43,8.43,0,0,0,6-2.44c-.72-2.71-2.42-4.64-6.64-4.64s-5.58,1.93-5.83,4.64A10,10,0,0,0,250.94,176.89Z" style="fill:#fff;opacity:0.9"></path><path d="M241.78,186.74a2.33,2.33,0,0,1-2.27-2.08,1.88,1.88,0,0,1,1.91-2.08h20a2.31,2.31,0,0,1,2.26,2.08,1.88,1.88,0,0,1-1.9,2.08Z" style="fill:#263238"></path><path d="M241.78,186.74a2.33,2.33,0,0,1-2.27-2.08,1.88,1.88,0,0,1,1.91-2.08h20a2.31,2.31,0,0,1,2.26,2.08,1.88,1.88,0,0,1-1.9,2.08Z" style="fill:#fff;opacity:0.8"></path><ellipse cx="280.27" cy="167.66" rx="8.84" ry="9.64" transform="translate(-34.64 254.21) rotate(-46.26)" style="fill:#263238"></ellipse><ellipse cx="280.27" cy="167.66" rx="8.84" ry="9.64" transform="translate(-34.64 254.21) rotate(-46.26)" style="fill:#fff;opacity:0.7000000000000001"></ellipse><path d="M281.29,179.28a13,13,0,0,1-12.65-11.62A10.5,10.5,0,0,1,279.25,156a13,13,0,0,1,12.65,11.63A10.49,10.49,0,0,1,281.29,179.28Zm-1.92-21.95a9.32,9.32,0,0,0-9.43,10.33A11.51,11.51,0,0,0,281.17,178a9.32,9.32,0,0,0,9.43-10.32A11.51,11.51,0,0,0,279.37,157.33Z" style="fill:#7367F0"></path><path d="M283.32,165.73c.17,2-.16,3.63-2.9,3.63s-3.36-1.62-3.54-3.63.16-3.64,2.9-3.64S283.14,163.72,283.32,165.73Z" style="fill:#fff;opacity:0.9"></path><path d="M281.08,176.89a8.43,8.43,0,0,0,6-2.44c-.73-2.71-2.42-4.64-6.64-4.64s-5.58,1.93-5.83,4.64A10,10,0,0,0,281.08,176.89Z" style="fill:#fff;opacity:0.9"></path><path d="M271.92,186.74a2.32,2.32,0,0,1-2.27-2.08,1.88,1.88,0,0,1,1.9-2.08H291.6a2.31,2.31,0,0,1,2.26,2.08,1.88,1.88,0,0,1-1.9,2.08Z" style="fill:#263238"></path><path d="M271.92,186.74a2.32,2.32,0,0,1-2.27-2.08,1.88,1.88,0,0,1,1.9-2.08H291.6a2.31,2.31,0,0,1,2.26,2.08,1.88,1.88,0,0,1-1.9,2.08Z" style="fill:#fff;opacity:0.8"></path><path d="M263.07,144.94l.56,6.41h6.42l-.56-6.41Zm6.11,5.61h-4.81l-.43-4.81h4.82Z" style="fill:#263238"></path><polygon points="266.32 149.97 267.12 149.97 267 148.55 268.43 148.55 268.36 147.74 266.93 147.74 266.8 146.31 266 146.31 266.13 147.74 264.7 147.74 264.77 148.55 266.19 148.55 266.32 149.97" style="fill:#263238"></polygon><path d="M277,151.19l-2.69-2.47a2.91,2.91,0,0,1-1-1.82,1.56,1.56,0,0,1,1.65-1.8,2,2,0,0,1,1.58.69,1.69,1.69,0,0,1,1.46-.69,1.91,1.91,0,0,1,2,1.8,2.36,2.36,0,0,1-.69,1.82Zm-2-5.29a.85.85,0,0,0-.92,1,2.07,2.07,0,0,0,.72,1.25h0l2.07,1.9,1.75-1.9a1.64,1.64,0,0,0,.5-1.25,1,1,0,0,0-1.09-1c-.56,0-.72.21-1.08.67l-.34.44-.42-.44C275.73,146.11,275.53,145.9,275,145.9Z" style="fill:#263238"></path><path d="M287,151.66a3.92,3.92,0,0,1-3.82-3.52,3.17,3.17,0,0,1,3.21-3.51,3.92,3.92,0,0,1,3.82,3.51A3.18,3.18,0,0,1,287,151.66Zm-.54-6.23a2.45,2.45,0,0,0-2.48,2.71,3,3,0,0,0,3,2.72,2.45,2.45,0,0,0,2.48-2.72A3,3,0,0,0,286.44,145.43Z" style="fill:#263238"></path><g style="opacity:0.7000000000000001"><path d="M263.07,144.94l.56,6.41h6.42l-.56-6.41Zm6.11,5.61h-4.81l-.43-4.81h4.82Z" style="fill:#fff"></path><polygon points="266.32 149.97 267.12 149.97 267 148.55 268.43 148.55 268.36 147.74 266.93 147.74 266.8 146.31 266 146.31 266.13 147.74 264.7 147.74 264.77 148.55 266.19 148.55 266.32 149.97" style="fill:#fff"></polygon><path d="M277,151.19l-2.69-2.47a2.91,2.91,0,0,1-1-1.82,1.56,1.56,0,0,1,1.65-1.8,2,2,0,0,1,1.58.69,1.69,1.69,0,0,1,1.46-.69,1.91,1.91,0,0,1,2,1.8,2.36,2.36,0,0,1-.69,1.82Zm-2-5.29a.85.85,0,0,0-.92,1,2.07,2.07,0,0,0,.72,1.25h0l2.07,1.9,1.75-1.9a1.64,1.64,0,0,0,.5-1.25,1,1,0,0,0-1.09-1c-.56,0-.72.21-1.08.67l-.34.44-.42-.44C275.73,146.11,275.53,145.9,275,145.9Z" style="fill:#fff"></path><path d="M287,151.66a3.92,3.92,0,0,1-3.82-3.52,3.17,3.17,0,0,1,3.21-3.51,3.92,3.92,0,0,1,3.82,3.51A3.18,3.18,0,0,1,287,151.66Zm-.54-6.23a2.45,2.45,0,0,0-2.48,2.71,3,3,0,0,0,3,2.72,2.45,2.45,0,0,0,2.48-2.72A3,3,0,0,0,286.44,145.43Z" style="fill:#fff"></path></g><path d="M194.16,365.93l-3-2.74a3.2,3.2,0,0,1-1.12-2,1.73,1.73,0,0,1,1.83-2,2.26,2.26,0,0,1,1.76.77,1.86,1.86,0,0,1,1.62-.77,2.12,2.12,0,0,1,2.18,2,2.64,2.64,0,0,1-.77,2Zm-2.2-5.87a.93.93,0,0,0-1,1.11,2.27,2.27,0,0,0,.8,1.39h0l2.31,2.11,1.94-2.11a1.86,1.86,0,0,0,.56-1.39,1.14,1.14,0,0,0-1.21-1.11c-.63,0-.81.23-1.2.74l-.38.49-.47-.49C192.8,360.29,192.58,360.06,192,360.06Z" style="fill:#263238"></path><path d="M205.29,366.26a4.12,4.12,0,0,1-4-3.71,3.35,3.35,0,0,1,3.38-3.71,4.13,4.13,0,0,1,4,3.71A3.35,3.35,0,0,1,205.29,366.26Zm-.58-6.57a2.58,2.58,0,0,0-2.61,2.86,3.19,3.19,0,0,0,3.12,2.86,2.58,2.58,0,0,0,2.61-2.86A3.19,3.19,0,0,0,204.71,359.69Z" style="fill:#263238"></path><path d="M217.49,366.06a.89.89,0,0,1-.76-.44l-1.39-2.33-2.42-1.18a.86.86,0,0,1-.51-.8.71.71,0,0,1,.52-.7l5.26-1.54a.89.89,0,0,1,1.09,1l-1.06,5.39a.73.73,0,0,1-.65.59Zm-1.79-3.55a.9.9,0,0,1,.39.36l1.29,2.16,1-5.06-4.94,1.44Zm-.37.76Z" style="fill:#263238"></path><g style="opacity:0.7000000000000001"><path d="M194.16,365.93l-3-2.74a3.2,3.2,0,0,1-1.12-2,1.73,1.73,0,0,1,1.83-2,2.26,2.26,0,0,1,1.76.77,1.86,1.86,0,0,1,1.62-.77,2.12,2.12,0,0,1,2.18,2,2.64,2.64,0,0,1-.77,2Zm-2.2-5.87a.93.93,0,0,0-1,1.11,2.27,2.27,0,0,0,.8,1.39h0l2.31,2.11,1.94-2.11a1.86,1.86,0,0,0,.56-1.39,1.14,1.14,0,0,0-1.21-1.11c-.63,0-.81.23-1.2.74l-.38.49-.47-.49C192.8,360.29,192.58,360.06,192,360.06Z" style="fill:#fff"></path><path d="M205.29,366.26a4.12,4.12,0,0,1-4-3.71,3.35,3.35,0,0,1,3.38-3.71,4.13,4.13,0,0,1,4,3.71A3.35,3.35,0,0,1,205.29,366.26Zm-.58-6.57a2.58,2.58,0,0,0-2.61,2.86,3.19,3.19,0,0,0,3.12,2.86,2.58,2.58,0,0,0,2.61-2.86A3.19,3.19,0,0,0,204.71,359.69Z" style="fill:#fff"></path><path d="M217.49,366.06a.89.89,0,0,1-.76-.44l-1.39-2.33-2.42-1.18a.86.86,0,0,1-.51-.8.71.71,0,0,1,.52-.7l5.26-1.54a.89.89,0,0,1,1.09,1l-1.06,5.39a.73.73,0,0,1-.65.59Zm-1.79-3.55a.9.9,0,0,1,.39.36l1.29,2.16,1-5.06-4.94,1.44Zm-.37.76Z" style="fill:#fff"></path></g><path d="M189.59,202.91a5,5,0,0,1-5.1,5.58,6.22,6.22,0,0,1-6.07-5.58,5,5,0,0,1,5.1-5.58A6.22,6.22,0,0,1,189.59,202.91Z" style="fill:#7367F0"></path><path d="M185.85,201.74c.1,1.22-.09,2.2-1.75,2.2s-2-1-2.14-2.2.09-2.2,1.75-2.2S185.74,200.53,185.85,201.74Z" style="fill:#fff;opacity:0.9"></path><path d="M184.49,208.49a5.09,5.09,0,0,0,3.64-1.47c-.43-1.64-1.46-2.81-4-2.81s-3.37,1.17-3.52,2.81A6,6,0,0,0,184.49,208.49Z" style="fill:#fff;opacity:0.9"></path><path d="M195.24,205a2.31,2.31,0,0,1-2.26-2.08,1.88,1.88,0,0,1,1.9-2.08h20a2.32,2.32,0,0,1,2.27,2.08,1.88,1.88,0,0,1-1.9,2.08Z" style="fill:#263238"></path><path d="M195.24,205a2.31,2.31,0,0,1-2.26-2.08,1.88,1.88,0,0,1,1.9-2.08h20a2.32,2.32,0,0,1,2.27,2.08,1.88,1.88,0,0,1-1.9,2.08Z" style="fill:#fff;opacity:0.6000000000000001"></path><path d="M194.34,373.25a2.32,2.32,0,0,1-2.27-2.08,1.88,1.88,0,0,1,1.9-2.08H214a2.31,2.31,0,0,1,2.26,2.08,1.88,1.88,0,0,1-1.9,2.08Z" style="fill:#263238"></path><path d="M194.34,373.25a2.32,2.32,0,0,1-2.27-2.08,1.88,1.88,0,0,1,1.9-2.08H214a2.31,2.31,0,0,1,2.26,2.08,1.88,1.88,0,0,1-1.9,2.08Z" style="fill:#fff;opacity:0.6000000000000001"></path><path d="M195.33,384.62a2.31,2.31,0,0,1-2.26-2.08,1.88,1.88,0,0,1,1.9-2.09H262.3a2.33,2.33,0,0,1,2.27,2.09,1.88,1.88,0,0,1-1.9,2.08Z" style="fill:#263238"></path><path d="M195.33,384.62a2.31,2.31,0,0,1-2.26-2.08,1.88,1.88,0,0,1,1.9-2.09H262.3a2.33,2.33,0,0,1,2.27,2.09,1.88,1.88,0,0,1-1.9,2.08Z" style="fill:#fff;opacity:0.8"></path><path d="M270.72,384.62a2.31,2.31,0,0,1-2.26-2.08,1.88,1.88,0,0,1,1.9-2.09h21.2a2.33,2.33,0,0,1,2.27,2.09,1.88,1.88,0,0,1-1.9,2.08Z" style="fill:#263238"></path><path d="M270.72,384.62a2.31,2.31,0,0,1-2.26-2.08,1.88,1.88,0,0,1,1.9-2.09h21.2a2.33,2.33,0,0,1,2.27,2.09,1.88,1.88,0,0,1-1.9,2.08Z" style="fill:#fff;opacity:0.8"></path><path d="M196.23,394.91a2.31,2.31,0,0,1-2.26-2.08,1.88,1.88,0,0,1,1.9-2.08h48.46a2.33,2.33,0,0,1,2.27,2.08,1.88,1.88,0,0,1-1.9,2.08Z" style="fill:#263238"></path><path d="M196.23,394.91a2.31,2.31,0,0,1-2.26-2.08,1.88,1.88,0,0,1,1.9-2.08h48.46a2.33,2.33,0,0,1,2.27,2.08,1.88,1.88,0,0,1-1.9,2.08Z" style="fill:#fff;opacity:0.8"></path><path d="M252.75,394.91a2.31,2.31,0,0,1-2.26-2.08,1.88,1.88,0,0,1,1.9-2.08h33a2.31,2.31,0,0,1,2.26,2.08,1.87,1.87,0,0,1-1.9,2.08Z" style="fill:#263238"></path><path d="M252.75,394.91a2.31,2.31,0,0,1-2.26-2.08,1.88,1.88,0,0,1,1.9-2.08h33a2.31,2.31,0,0,1,2.26,2.08,1.87,1.87,0,0,1-1.9,2.08Z" style="fill:#fff;opacity:0.8"></path></g><g id="freepik--Bats--inject-104"><path d="M185.28,252.1c-1.56-2.54-5.63-7.7-12.23-6.61a.55.55,0,0,0-.46.44c-.18.87-1.07,3-5.26,3.61a5.15,5.15,0,0,0-.66-1.25,2.43,2.43,0,0,1,.25-.2c.65-.5,1.36-.71,1.17-1.45a2,2,0,0,0-2.17.13,2.09,2.09,0,0,0-.36.37,1.4,1.4,0,0,0-.93-.23,1.68,1.68,0,0,0-.2-.34,2,2,0,0,0-2.05-.71c-.38.66.25,1.06.74,1.71a.21.21,0,0,0,0,.06,5.45,5.45,0,0,0-1.16,1.14c-3.76-1.68-4-4-4-4.83a.58.58,0,0,0-.32-.55c-6.07-2.82-11.37,1.07-13.56,3.09a.57.57,0,0,0,.4,1c2.92,0,3.88,1.25,4.18,1.95a.57.57,0,0,0,.65.33c4.2-1,5.88,1.57,6.34,2.52a.58.58,0,0,0,.56.3,8.33,8.33,0,0,1,4.82.76,5.48,5.48,0,0,0,2.53,3.43,5.47,5.47,0,0,0,3.32-2.56,8.16,8.16,0,0,1,5,.51.56.56,0,0,0,.61-.14c.71-.78,3-2.77,6.79-.73a.57.57,0,0,0,.71-.14c.48-.59,1.74-1.55,4.55-.75A.57.57,0,0,0,185.28,252.1Z" style="fill:#263238"></path><path d="M164,249.13c0,.31-.22.55-.4.52s-.29-.29-.25-.61.22-.54.4-.52S164,248.82,164,249.13Z" style="fill:#7367F0"></path><path d="M165.61,249.35c-.05.32-.23.55-.41.52s-.29-.29-.25-.61.23-.54.41-.52S165.65,249,165.61,249.35Z" style="fill:#7367F0"></path><path d="M202.48,261.12c-2.45-1.09-8.09-2.87-12.45,1.29a.49.49,0,0,0-.12.56c.3.74.74,2.79-2.08,5.35a5.28,5.28,0,0,0-1.13-.59c0-.09.05-.18.08-.28.24-.69.66-1.21.14-1.67a1.79,1.79,0,0,0-1.55,1.2,1.93,1.93,0,0,0-.08.46,1.32,1.32,0,0,0-.81.3,1.57,1.57,0,0,0-.32-.15,1.76,1.76,0,0,0-1.89.51c.06.69.73.67,1.42.9l.06,0a5,5,0,0,0-.28,1.44c-3.65.66-5-.9-5.41-1.58a.52.52,0,0,0-.52-.24c-5.95,1-7.92,6.57-8.52,9.18a.51.51,0,0,0,.8.53c2.16-1.49,3.51-1,4.1-.68a.5.5,0,0,0,.64-.08c2.64-2.84,5.18-1.81,6-1.35a.5.5,0,0,0,.57-.05,7.52,7.52,0,0,1,4-1.89,4.91,4.91,0,0,0,3.63,1.27A4.91,4.91,0,0,0,189.9,272a7.22,7.22,0,0,1,4-2.18.49.49,0,0,0,.38-.41c.13-.94.83-3.59,4.69-4a.51.51,0,0,0,.45-.47c.06-.68.51-2,3-2.87A.51.51,0,0,0,202.48,261.12Z" style="fill:#263238"></path><path d="M185.14,269.72c.12.25.11.52,0,.59s-.37-.07-.5-.33-.11-.52,0-.59S185,269.46,185.14,269.72Z" style="fill:#7367F0"></path><path d="M186.45,269.06c.13.26.11.52,0,.6s-.37-.08-.49-.33-.11-.52,0-.6S186.32,268.81,186.45,269.06Z" style="fill:#7367F0"></path><path d="M337.59,301.74c-.89-2.53-3.48-7.85-9.5-8.16a.52.52,0,0,0-.49.3c-.33.73-1.52,2.46-5.32,2.18a4.67,4.67,0,0,0-.34-1.23l.26-.13c.66-.31,1.33-.36,1.3-1.05a1.75,1.75,0,0,0-1.93-.3,1.56,1.56,0,0,0-.39.26,1.3,1.3,0,0,0-.77-.39,2.13,2.13,0,0,0-.11-.33,1.75,1.75,0,0,0-1.67-1c-.47.51,0,1,.32,1.65l0,.06a5,5,0,0,0-1.24.78c-3-2.2-2.8-4.25-2.58-5a.55.55,0,0,0-.18-.55c-4.81-3.63-10.21-1.23-12.52.13a.52.52,0,0,0,.16.95c2.57.54,3.17,1.83,3.31,2.51a.51.51,0,0,0,.5.41c3.89,0,4.88,2.51,5.11,3.43a.5.5,0,0,0,.43.37,7.53,7.53,0,0,1,4.1,1.59,4.94,4.94,0,0,0,1.57,3.51,5,5,0,0,0,3.41-1.62,7.24,7.24,0,0,1,4.33,1.41.51.51,0,0,0,.57,0c.76-.56,3.16-1.87,6.11.65a.49.49,0,0,0,.65,0c.54-.42,1.83-1,4.15.21A.51.51,0,0,0,337.59,301.74Z" style="fill:#263238"></path><path d="M319.42,295.06c-.1.27-.3.44-.45.38s-.2-.32-.11-.58.31-.44.46-.39S319.52,294.79,319.42,295.06Z" style="fill:#7367F0"></path><path d="M320.8,295.56c-.1.27-.3.44-.46.38s-.2-.31-.1-.58.3-.44.46-.38S320.9,295.3,320.8,295.56Z" style="fill:#7367F0"></path><path d="M189.78,219.36c-1.57-3.2-5.8-9.81-13.77-9.3a.67.67,0,0,0-.6.48c-.32,1-1.63,3.47-6.68,3.67a6.25,6.25,0,0,0-.64-1.56l.32-.21c.83-.51,1.7-.68,1.56-1.59a2.35,2.35,0,0,0-3.07.3,1.75,1.75,0,0,0-1.07-.38,1.86,1.86,0,0,0-.2-.43,2.32,2.32,0,0,0-2.36-1.08c-.53.74.17,1.29.68,2.12a.25.25,0,0,1,0,.07,6.31,6.31,0,0,0-1.5,1.23c-4.28-2.44-4.34-5.18-4.18-6.22a.67.67,0,0,0-.32-.69c-6.88-4.06-13.64-.05-16.48,2.09a.68.68,0,0,0,.37,1.22c3.47.32,4.46,1.93,4.74,2.8a.67.67,0,0,0,.73.46c5.11-.64,6.8,2.57,7.25,3.75a.69.69,0,0,0,.62.42,10,10,0,0,1,5.65,1.47,6.54,6.54,0,0,0,2.6,4.38,6.55,6.55,0,0,0,4.25-2.66c1.16-.23,3.06-.16,5.92,1.2a.69.69,0,0,0,.75-.1c.92-.85,3.89-3,8.16-.07a.66.66,0,0,0,.85-.09c.65-.64,2.26-1.63,5.5-.36A.68.68,0,0,0,189.78,219.36Z" style="fill:#263238"></path><path d="M164.81,213.34c-.09.37-.33.62-.54.57s-.32-.39-.23-.75.33-.63.54-.58S164.9,213,164.81,213.34Z" style="fill:#7367F0"></path><path d="M166.7,213.79c-.09.37-.33.62-.54.57s-.31-.39-.23-.75.33-.63.55-.58S166.79,213.42,166.7,213.79Z" style="fill:#7367F0"></path><path d="M185.81,288.2c-1.43-.63-4.73-1.67-7.27.76a.28.28,0,0,0-.07.32c.17.44.43,1.63-1.22,3.13a3,3,0,0,0-.66-.35c0-.05,0-.1,0-.16.14-.4.38-.71.08-1a1,1,0,0,0-.9.7.86.86,0,0,0,0,.27.73.73,0,0,0-.47.17.66.66,0,0,0-.19-.09,1,1,0,0,0-1.1.3c0,.4.42.39.83.52l0,0a3,3,0,0,0-.16.84c-2.13.38-2.93-.52-3.16-.92a.3.3,0,0,0-.31-.14c-3.47.57-4.62,3.83-5,5.36a.3.3,0,0,0,.47.3c1.26-.87,2-.6,2.39-.39a.29.29,0,0,0,.38-.05A2.72,2.72,0,0,1,173,297a.29.29,0,0,0,.33,0,4.43,4.43,0,0,1,2.32-1.1,2.85,2.85,0,0,0,2.12.74,2.83,2.83,0,0,0,.68-2.09,4.23,4.23,0,0,1,2.34-1.27A.29.29,0,0,0,181,293a2.72,2.72,0,0,1,2.74-2.33.3.3,0,0,0,.26-.27c0-.4.3-1.19,1.75-1.68A.3.3,0,0,0,185.81,288.2Z" style="fill:#263238"></path><path d="M175.68,293.22c.08.15.07.31,0,.35s-.22,0-.29-.19-.06-.3,0-.35S175.61,293.08,175.68,293.22Z" style="fill:#7367F0"></path><path d="M176.45,292.84c.07.15.06.31,0,.35s-.22,0-.29-.19-.07-.31,0-.35S176.37,292.69,176.45,292.84Z" style="fill:#7367F0"></path></g><g id="freepik--Character--inject-104"><path d="M223.94,210.94s3.7-2.09,4.27,1c0,0-2.36-1.66-5.05,1Z" style="fill:#7367F0"></path><path d="M218.78,209.12a5.39,5.39,0,0,1,5.16-3.58s-3,2.09-3.47,4.63Z" style="fill:#7367F0"></path><path d="M213.1,210.17s-.37-3.51,2.49-5.25c0,0-1.71,2.19-.73,4.2Z" style="fill:#7367F0"></path><path d="M242.6,211.36c1.5,6.88,2,11,6.09,14.12a9.17,9.17,0,0,0,14.82-6.6c.53-6.41-2-16.59-9.25-18.54A9.27,9.27,0,0,0,242.6,211.36Z" style="fill:#ce7a63"></path><path d="M241,218.54a7.62,7.62,0,0,0,4.37,2.6c2.17.37,2.66-1.64,1.56-3.58-1-1.75-3.32-4.05-5.26-3.54S239.61,216.85,241,218.54Z" style="fill:#ce7a63"></path><path d="M253.46,212c.09.57.46,1,.83.94s.6-.53.51-1.1-.45-1-.82-.94S253.38,211.48,253.46,212Z" style="fill:#263238"></path><path d="M259.87,211.28c.09.56.46,1,.83.94s.6-.54.51-1.1-.45-1-.82-.94S259.78,210.71,259.87,211.28Z" style="fill:#263238"></path><path d="M257.88,211.8a21.27,21.27,0,0,0,3.45,4.51,3.26,3.26,0,0,1-2.63.83Z" style="fill:#ba4d3c"></path><path d="M251.56,209.15a.3.3,0,0,1-.07-.15.34.34,0,0,1,.28-.39,3.22,3.22,0,0,1,2.88.94.32.32,0,0,1,0,.47.35.35,0,0,1-.48,0,2.55,2.55,0,0,0-2.27-.7A.36.36,0,0,1,251.56,209.15Z" style="fill:#263238"></path><path d="M261.82,207.5a.31.31,0,0,1-.26.18,2.82,2.82,0,0,0-2.08,1.35.34.34,0,1,1-.6-.3h0a3.46,3.46,0,0,1,2.59-1.71.34.34,0,0,1,.38.28A.44.44,0,0,1,261.82,207.5Z" style="fill:#263238"></path><path d="M279.88,208.18s-3.7-2.09-4.26,1c0,0,2.36-1.65,5.05,1Z" style="fill:#7367F0"></path><path d="M285,206.36a5.38,5.38,0,0,0-5.16-3.58s3,2.09,3.48,4.64Z" style="fill:#7367F0"></path><path d="M290.72,207.42s.38-3.52-2.48-5.25c0,0,1.71,2.19.73,4.19Z" style="fill:#7367F0"></path><path d="M269.45,237.94l13.91-2.54-2.47,3.11L289.2,237l-1.73,4.8,4.19-3.25,3,3.25-3.93-10.24,3.93,1.8-6.4-6.92,3.64-1.67-6.28-4.39,2.64-1.91-3.44-4.92s-13.44-4.91-1.72-7.82,12.61,8.74,12.61,8.74l4.49,1.12-2.92,1.91,5.84,6-3.37-.88,5.61,10.7L302,230.6l5.61,12.55L304.45,241l3.14,8.62h-2.91l.67,6-4-2.5-2,5.9-4.64-4.2-3.93,5.54-2.2-4.74-3.36,4.74-3.1-5.21a4.64,4.64,0,0,0-1.84,5.21l-3.36-5.54-1.24,5.54L272.29,254l-2,4.42S261.6,247.07,269.45,237.94Z" style="fill:#7367F0"></path><path d="M269.45,237.94l13.91-2.54-2.47,3.11L289.2,237l-1.73,4.8,4.19-3.25,3,3.25-3.93-10.24,3.93,1.8-6.4-6.92,3.64-1.67-6.28-4.39,2.64-1.91-3.44-4.92s-13.44-4.91-1.72-7.82,12.61,8.74,12.61,8.74l4.49,1.12-2.92,1.91,5.84,6-3.37-.88,5.61,10.7L302,230.6l5.61,12.55L304.45,241l3.14,8.62h-2.91l.67,6-4-2.5-2,5.9-4.64-4.2-3.93,5.54-2.2-4.74-3.36,4.74-3.1-5.21a4.64,4.64,0,0,0-1.84,5.21l-3.36-5.54-1.24,5.54L272.29,254l-2,4.42S261.6,247.07,269.45,237.94Z" style="fill:#fff;opacity:0.7000000000000001"></path><path d="M293.63,214.81s-.86-4-1.7-5a5.58,5.58,0,0,0-4.46-1.41c-1.09.23-4.43.74-4.4,1.85,0,.94,2.67,1.36,4.43,2.44a3.42,3.42,0,0,1,1.7,2.82Z" style="fill:#7367F0"></path><path d="M293.63,214.81s-.86-4-1.7-5a5.58,5.58,0,0,0-4.46-1.41c-1.09.23-4.43.74-4.4,1.85,0,.94,2.67,1.36,4.43,2.44a3.42,3.42,0,0,1,1.7,2.82Z" style="fill:#fff;opacity:0.5"></path><path d="M242.57,236.07l-9.64-.89,1.73,2.73-8.66,1,6.07,1.86s1.41,8.31-2.63,12.95c0,0,3.1.85,4.09-1.29,0,0,.75,9.07-2.87,12.06,0,0,3.69.71,4.68-1.06,0,0-1.71,9.14-5.75,10.18,0,0,2.06,1.5,4.7-.74,0,0-.31,9.12-3.63,10.76,0,0,3.48.9,5.32-1.79,0,0-.84,9.87-4.44,14.51,0,0,3.32.16,4.35-2.09,0,0-1.95,11.21-4.35,14.8a7.9,7.9,0,0,0,3.59-4.23s-1.65,13.2-6.29,17.09c0,0,2.36-.3,5.45-4.48,0,0-3.65,12.71-8.29,14.8a21.47,21.47,0,0,0,6.21-2.54s-3.07,8.83-5.16,9.87c0,0,3.57,0,5.23-2.68,0,0-.45,7-3.14,8.81,0,0,2.19.78,3.34-.88,0,0,0,6.12-2.89,8.51h28.69l.75-4.66,2.42,2.42s-2.67-5.11-1.63-7.42a9.69,9.69,0,0,1,2.8,9.66h21.72l-.51-5.66,3.19,2.07-3.81-7.82,3.81,1.24-4.85-9.49a9.92,9.92,0,0,0,4.85,2s-5.28-5.44-6.1-10.69a5.53,5.53,0,0,0,4,1.87s-4.58-5.65-5.06-8.58c0,0,4.14,1.55,5.06.35,0,0-5.5-3.18-6.34-7.91,0,0,3.09,1.93,4.5.73,0,0-5.49-6.31-6-9l4.57,2.89-4.34-8.67,3.74,2s-2.69-6.36-3.14-9.2l4.34,2.39s-3.45-4.49-3.52-7l3.67,1.5s-5.09-7.63-4.94-9.58c0,0,3.44,2.85,6.28,2.7,0,0-6.06-5.91-6.28-10.17,0,0,2.05,3.19,5.63,2.38,0,0-8-8-7-11.58,0,0,3.79,1.5,5.61-.45,0,0-6.63-3.8-7-6.23,0,0,4.39.37,6.06-2.76,0,0-5.75-3-6.42-6.11a13.44,13.44,0,0,0,6.06-.72s-5.16-1.14-5.84-3.09l4.19,0-8.05-4,3.19-2.35-15.85.65Z" style="fill:#7367F0"></path><path d="M242.57,236.07l-9.64-.89,1.73,2.73-8.66,1,6.07,1.86s1.41,8.31-2.63,12.95c0,0,3.1.85,4.09-1.29,0,0,.75,9.07-2.87,12.06,0,0,3.69.71,4.68-1.06,0,0-1.71,9.14-5.75,10.18,0,0,2.06,1.5,4.7-.74,0,0-.31,9.12-3.63,10.76,0,0,3.48.9,5.32-1.79,0,0-.84,9.87-4.44,14.51,0,0,3.32.16,4.35-2.09,0,0-1.95,11.21-4.35,14.8a7.9,7.9,0,0,0,3.59-4.23s-1.65,13.2-6.29,17.09c0,0,2.36-.3,5.45-4.48,0,0-3.65,12.71-8.29,14.8a21.47,21.47,0,0,0,6.21-2.54s-3.07,8.83-5.16,9.87c0,0,3.57,0,5.23-2.68,0,0-.45,7-3.14,8.81,0,0,2.19.78,3.34-.88,0,0,0,6.12-2.89,8.51h28.69l.75-4.66,2.42,2.42s-2.67-5.11-1.63-7.42a9.69,9.69,0,0,1,2.8,9.66h21.72l-.51-5.66,3.19,2.07-3.81-7.82,3.81,1.24-4.85-9.49a9.92,9.92,0,0,0,4.85,2s-5.28-5.44-6.1-10.69a5.53,5.53,0,0,0,4,1.87s-4.58-5.65-5.06-8.58c0,0,4.14,1.55,5.06.35,0,0-5.5-3.18-6.34-7.91,0,0,3.09,1.93,4.5.73,0,0-5.49-6.31-6-9l4.57,2.89-4.34-8.67,3.74,2s-2.69-6.36-3.14-9.2l4.34,2.39s-3.45-4.49-3.52-7l3.67,1.5s-5.09-7.63-4.94-9.58c0,0,3.44,2.85,6.28,2.7,0,0-6.06-5.91-6.28-10.17,0,0,2.05,3.19,5.63,2.38,0,0-8-8-7-11.58,0,0,3.79,1.5,5.61-.45,0,0-6.63-3.8-7-6.23,0,0,4.39.37,6.06-2.76,0,0-5.75-3-6.42-6.11a13.44,13.44,0,0,0,6.06-.72s-5.16-1.14-5.84-3.09l4.19,0-8.05-4,3.19-2.35-15.85.65Z" style="fill:#fff;opacity:0.4"></path><path d="M247.07,206.36a8.91,8.91,0,0,1,3,6.63,8.27,8.27,0,0,0,.88-5.58l2.58,1.28.73-2.33,2.24,1.35.61-2.17,2.57,1.45.05-2.41a5.6,5.6,0,0,1,3,3.13s.74-4-4.1-7L251,203Z" style="fill:#7367F0"></path><path d="M251.11,228s2.39-2.14,2-4.88a4,4,0,0,1,1.57,3.42l1.29-2.25,1.15,1.27,1.15-1.63.71.92,1.51-1.73v2.09l2-2.09a6.73,6.73,0,0,1-2.84,4.88l-7.28,1.17Z" style="fill:#7367F0"></path><g style="opacity:0.9"><path d="M247.07,206.36a8.91,8.91,0,0,1,3,6.63,8.27,8.27,0,0,0,.88-5.58l2.58,1.28.73-2.33,2.24,1.35.61-2.17,2.57,1.45.05-2.41a5.6,5.6,0,0,1,3,3.13s.74-4-4.1-7L251,203Z" style="fill:#fff"></path><path d="M251.11,228s2.39-2.14,2-4.88a4,4,0,0,1,1.57,3.42l1.29-2.25,1.15,1.27,1.15-1.63.71.92,1.51-1.73v2.09l2-2.09a6.73,6.73,0,0,1-2.84,4.88l-7.28,1.17Z" style="fill:#fff"></path></g><path d="M232.07,208s-3.23-1-6.07-5.17l6.93-.9s4.58-9.55,12.06-8.52c0,0,6.31-10.47,12.13-8.53s7.36,15,1.43,18.55-16.14,2-15.47,9.54,7.37,18.68,16.91,13c0,0,1.64,2.41,3.72,2.86l-3,.76,5.25,3.28h-3.17l3.92,3.72h-3l3,6.15-4.45-1.51-1.55,6.52-4.09-4.72-4.16,5.6-2.35-4.88-4.43,2.12.69-4.64-6.12,1.21,3.33-3.79-5.86.2s3.42-2.39,4.16-4.33l-3.29.3s3-3.28,3-5.23h-3.14a5.89,5.89,0,0,0,1.81-4.65L236,226s3.63-3.09,2.73-5.8l-4,1.31s2.46-2.7,1.31-4.85l-3.91.52s2.39-2.26,2.16-4.2h-3.57A5.36,5.36,0,0,0,232.07,208Z" style="fill:#7367F0"></path><path d="M232.07,208s-3.23-1-6.07-5.17l6.93-.9s4.58-9.55,12.06-8.52c0,0,6.31-10.47,12.13-8.53s7.36,15,1.43,18.55-16.14,2-15.47,9.54,7.37,18.68,16.91,13c0,0,1.64,2.41,3.72,2.86l-3,.76,5.25,3.28h-3.17l3.92,3.72h-3l3,6.15-4.45-1.51-1.55,6.52-4.09-4.72-4.16,5.6-2.35-4.88-4.43,2.12.69-4.64-6.12,1.21,3.33-3.79-5.86.2s3.42-2.39,4.16-4.33l-3.29.3s3-3.28,3-5.23h-3.14a5.89,5.89,0,0,0,1.81-4.65L236,226s3.63-3.09,2.73-5.8l-4,1.31s2.46-2.7,1.31-4.85l-3.91.52s2.39-2.26,2.16-4.2h-3.57A5.36,5.36,0,0,0,232.07,208Z" style="fill:#fff;opacity:0.6000000000000001"></path><path d="M241.26,196.57l-5.13,1.89S240.73,202,241.26,196.57Z" style="fill:#7367F0"></path><path d="M243.55,193.36v1.41l1.44-1.34A7.81,7.81,0,0,0,243.55,193.36Z" style="fill:#7367F0"></path><path d="M252.55,187.59a6.07,6.07,0,0,1,2.54-1.67,1.34,1.34,0,0,1,1.58.53,5.89,5.89,0,0,1,.83,2.3,1.32,1.32,0,0,1-1,1.46,5.29,5.29,0,0,1-3.49-.58A1.32,1.32,0,0,1,252.55,187.59Z" style="fill:#263238"></path><path d="M258.55,203.45A6.34,6.34,0,0,0,260,202.2a19.7,19.7,0,0,0-.4-10c-.27-.82-1.57-.47-1.3.36a19.06,19.06,0,0,1,0,11Z" style="opacity:0.4"></path><path d="M228.21,203.75s3.47.95,5.32,0C233.53,203.75,233.14,209,228.21,203.75Z" style="opacity:0.4"></path><g style="opacity:0.2"><path d="M256.59,248.94c1.8,9.45,3.16,19,4.28,28.56,1.85,16,3.52,32.73,1,48.7-.21,1.27,1.74,1.82,1.94.53,2.6-16.17,1-33.06-.88-49.23-1.14-9.73-2.52-19.47-4.35-29.1-.24-1.27-2.19-.73-2,.54Z"></path></g><path d="M235.34,263.41l-3.8-6.65-3.33,6.44L227,257.66l-3.36,5.54a4.67,4.67,0,0,0-1.84-5.22l-3.1,5.22-3.36-4.74-2.21,4.74-3.92-5.54-4.64,4.19-2-5.9-4,2.51.67-6h-2.91l3.14-8.62-3.14,2.12,5.6-12.55-3.36,2.71,5.61-10.69-3.37.88,5.84-6-2.92-1.91,4.49-1.11s.89-11.65,12.61-8.74-1.72,7.81-1.72,7.81l-3.45,4.92,2.65,1.92-6.28,4.38,3.63,1.67-6.39,6.92,3.92-1.79-3.92,10.23,3-3.24,4.2,3.24-1.73-4.8,8.3,1.56-2.46-3.11s10.77.91,13.91,2.54c1.41.73,4.54,4.44,4.54,4.44l-3.52-.56a6,6,0,0,0,3.52,4.09s-2.14.73-3.52,0c0,0,1.76,5.11,5.86,6.45,0,0-4,.92-5.86-.9l2.77,6.22-3.82-2.74Z" style="fill:#7367F0"></path><path d="M235.34,263.41l-3.8-6.65-3.33,6.44L227,257.66l-3.36,5.54a4.67,4.67,0,0,0-1.84-5.22l-3.1,5.22-3.36-4.74-2.21,4.74-3.92-5.54-4.64,4.19-2-5.9-4,2.51.67-6h-2.91l3.14-8.62-3.14,2.12,5.6-12.55-3.36,2.71,5.61-10.69-3.37.88,5.84-6-2.92-1.91,4.49-1.11s.89-11.65,12.61-8.74-1.72,7.81-1.72,7.81l-3.45,4.92,2.65,1.92-6.28,4.38,3.63,1.67-6.39,6.92,3.92-1.79-3.92,10.23,3-3.24,4.2,3.24-1.73-4.8,8.3,1.56-2.46-3.11s10.77.91,13.91,2.54c1.41.73,4.54,4.44,4.54,4.44l-3.52-.56a6,6,0,0,0,3.52,4.09s-2.14.73-3.52,0c0,0,1.76,5.11,5.86,6.45,0,0-4,.92-5.86-.9l2.77,6.22-3.82-2.74Z" style="fill:#fff;opacity:0.7000000000000001"></path><path d="M210.2,217.57s.86-4,1.7-5a5.55,5.55,0,0,1,4.46-1.41c1.09.22,4.42.74,4.4,1.85,0,.94-2.68,1.36-4.43,2.43a3.42,3.42,0,0,0-1.7,2.82Z" style="fill:#7367F0"></path><path d="M210.2,217.57s.86-4,1.7-5a5.55,5.55,0,0,1,4.46-1.41c1.09.22,4.42.74,4.4,1.85,0,.94-2.68,1.36-4.43,2.43a3.42,3.42,0,0,0-1.7,2.82Z" style="fill:#fff;opacity:0.5"></path><path d="M265.59,353.31l-.85-4.19h2.33L264,344.8h3.08l-3.68-4.2-1.19-8.45c-.18,7.67-2.38,11.5-2.38,11.5a9.69,9.69,0,0,1,2.8,9.66Z" style="opacity:0.2"></path><path d="M242.43,206.09s-5.68,3.34,0,14.56l-2.53,2.45s.74-3.84-.61-6.43l-2.24,1.63s1.94-3.9,1.64-6.68l-3.29-.49s3-1.72,3.29-3.58l-2.56-2.76A12.71,12.71,0,0,0,242.43,206.09Z" style="fill:#fff;opacity:0.5"></path><path d="M259.17,248.26l-1.81,1,2.49,5.28,2.49-1.38Zm2.48,4.74-1.58.88-.37-.68,1.58-.87Z" style="fill:#7367F0"></path><path d="M253.3,221.41a36,36,0,0,0,6.88-.44c-.77-1.44-2-2.52-4.6-2.2a2.37,2.37,0,0,0-2.29,2.43A1.48,1.48,0,0,0,253.3,221.41Z" style="fill:#263238"></path><path d="M256.92,219.83a4.74,4.74,0,0,1-2.9-.39,2.79,2.79,0,0,1,1.55-.65,4.75,4.75,0,0,1,2.9.39A2.66,2.66,0,0,1,256.92,219.83Z" style="fill:#fff"></path><path d="M253.54,221.43a1,1,0,0,1,.69-.85,27.22,27.22,0,0,1,4.51-.17A1.47,1.47,0,0,1,260,221,41.79,41.79,0,0,1,253.54,221.43Z" style="fill:#ba4d3c"></path></g><g id="freepik--Pumpkin--inject-104"><path d="M123.81,314.37s45.34-11,52.34,38.62-1,58.84-32.67,58.53c0,0-15,4.92-25.67,0,0,0-18.66,5.2-26.33-3.07,0,0-25.87,6.91-19.33-51.79C77.81,305.79,123.81,314.37,123.81,314.37Z" style="fill:#7367F0"></path><path d="M123.81,314.37s45.34-11,52.34,38.62-1,58.84-32.67,58.53c0,0-15,4.92-25.67,0,0,0-18.66,5.2-26.33-3.07,0,0-25.87,6.91-19.33-51.79C77.81,305.79,123.81,314.37,123.81,314.37Z" style="fill:#fff;opacity:0.4"></path><path d="M136,313.36s-6,.64-6,3.8c0,0-7.5-.66-8.5,1.5,0,0-1.2-4.41-7.18-4.79,0,0,3.51-2.21,6.68-1.71,0,0-4.67-25,10.17-24.66s8.67,16.5,4.84,13.33,1.82-9.17-3.34-8.5-3.67,20-3.67,20Z" style="fill:#263238"></path><path d="M148,408.08s15-.25,15.25-19.25C163.23,388.83,158.83,403.16,148,408.08Z" style="fill:#7367F0"></path><path d="M116.73,408.08s-7.5-6.5-4.25-24C112.48,384.08,112.23,397.08,116.73,408.08Z" style="fill:#7367F0"></path><path d="M90.23,405.58a36,36,0,0,1-10.5-19.25S77.48,401.33,90.23,405.58Z" style="fill:#7367F0"></path><path d="M137.23,318.66s13.5-.58,18.38,12.17C155.61,330.83,150.65,323,137.23,318.66Z" style="fill:#7367F0"></path><path d="M120.23,322.08l-3.5,8.75S116.23,324.83,120.23,322.08Z" style="fill:#7367F0"></path><path d="M111.66,318.66s-13.43.42-21.43,12.17C90.23,330.83,93.85,315.74,111.66,318.66Z" style="fill:#7367F0"></path><path d="M94.63,358.54l1.18,9.29,4.6-6.4a52.91,52.91,0,0,0,29.22,3.48l5.18,6.67,3.71-8.69a78.73,78.73,0,0,0,24.71-12.56s-16,29-44.75,29l-4.18-7.75-3.79,6.95C88.8,374,84.9,351.58,84.9,351.58A62.19,62.19,0,0,0,94.63,358.54Z" style="fill:#7367F0"></path><g style="opacity:0.30000000000000004"><path d="M90,355.56c1.55,1.09,3.09,2.09,4.64,3l1,7.91A39.4,39.4,0,0,1,90,355.56Z"></path><path d="M99.81,367.83l3.73-5.19a51.82,51.82,0,0,0,19.34,2.91,55.55,55.55,0,0,0,7.1-.2l4.83,6.23h4l3.71-8.69a79.79,79.79,0,0,0,17.56-7.75c-5.6,7.73-18.53,22.21-37.71,24l-4.07-7.55h-4l-3.28,6a30.71,30.71,0,0,1-14.78-10.36Z"></path></g><polygon points="142.78 349.33 134.77 334.58 122.44 355.56 142.78 349.33" style="fill:#7367F0"></polygon><polygon points="142.78 349.33 128.07 353.84 136.99 338.67 142.78 349.33" style="opacity:0.30000000000000004"></polygon><polygon points="111.66 355.56 102.81 333.33 92.81 347.83 111.66 355.56" style="fill:#7367F0"></polygon><polygon points="111.66 355.56 95.84 349.07 104.23 336.89 111.66 355.56" style="opacity:0.30000000000000004"></polygon></g></svg>